# Blender v2.66 (sub 1) OBJ File: 'Letter.blend'
# www.blender.org
o Grid
v 1.000181 0.058248 0.993750
v 0.781561 0.018399 0.993750
v 0.557537 0.007420 0.993750
v 0.335315 0.061370 0.993750
v 0.113093 0.114635 0.993750
v -0.109129 0.114635 0.993750
v -0.331351 0.061370 0.993750
v -0.553574 0.017544 0.993750
v -0.779879 0.002211 0.993750
v -0.993935 0.061898 0.993750
v 1.000181 0.058248 0.771528
v 0.781561 0.018399 0.771528
v 0.557537 0.007420 0.771528
v 0.335315 0.061370 0.771528
v 0.113093 0.114635 0.771528
v -0.109129 0.114635 0.771528
v -0.331351 0.061370 0.771528
v -0.553574 0.017544 0.771528
v -0.779879 0.002211 0.771528
v -0.993935 0.061898 0.771528
v 1.000181 0.058248 0.549306
v 0.781561 0.018399 0.549306
v 0.557537 0.007420 0.549306
v 0.335315 0.061370 0.549306
v 0.113093 0.114635 0.549306
v -0.109129 0.114635 0.549306
v -0.331351 0.061370 0.549306
v -0.553574 0.017544 0.549306
v -0.779879 0.002211 0.549306
v -0.993935 0.061898 0.549306
v 1.000181 0.058248 0.327084
v 0.781561 0.018399 0.327084
v 0.557537 0.007420 0.327084
v 0.335315 0.061370 0.327084
v 0.113093 0.114635 0.327084
v -0.109129 0.114635 0.327084
v -0.331351 0.061370 0.327084
v -0.553574 0.017544 0.327084
v -0.779879 0.002211 0.327084
v -0.993935 0.061898 0.327084
v 1.000181 0.058248 0.104861
v 0.781561 0.018399 0.104861
v 0.557537 0.007420 0.104861
v 0.335315 0.061370 0.104861
v 0.113093 0.114635 0.104861
v -0.109129 0.114635 0.104861
v -0.331351 0.061370 0.104861
v -0.553574 0.017544 0.104861
v -0.779879 0.002211 0.104861
v -0.993935 0.061898 0.104861
v 1.000181 0.058248 -0.117361
v 0.781561 0.018399 -0.117361
v 0.557537 0.007420 -0.117361
v 0.335315 0.061370 -0.117361
v 0.113093 0.114635 -0.117361
v -0.109129 0.114635 -0.117361
v -0.331351 0.061370 -0.117361
v -0.553574 0.017544 -0.117361
v -0.779879 0.002211 -0.117361
v -0.993935 0.061898 -0.117361
v 1.000181 0.058248 -0.339583
v 0.781561 0.018399 -0.339583
v 0.557537 0.007420 -0.339583
v 0.335315 0.061370 -0.339583
v 0.113093 0.114635 -0.339583
v -0.109129 0.114635 -0.339583
v -0.331351 0.061370 -0.339583
v -0.553574 0.017544 -0.339583
v -0.779879 0.002211 -0.339583
v -0.993935 0.061898 -0.339583
v 1.000181 0.058248 -0.561805
v 0.781561 0.018399 -0.561805
v 0.557537 0.007420 -0.561805
v 0.335315 0.061370 -0.561805
v 0.113093 0.114635 -0.561805
v -0.109129 0.114635 -0.561805
v -0.331351 0.061370 -0.561805
v -0.553574 0.017544 -0.561805
v -0.779879 0.002211 -0.561805
v -0.993935 0.061898 -0.561805
v 1.000181 0.058248 -0.784027
v 0.781561 0.018399 -0.784027
v 0.557537 0.007420 -0.784027
v 0.335315 0.061370 -0.784027
v 0.113093 0.114635 -0.784027
v -0.109129 0.114635 -0.784027
v -0.331351 0.061370 -0.784027
v -0.553574 0.017544 -0.784027
v -0.779879 0.002211 -0.784027
v -0.993935 0.061898 -0.784027
v 1.000181 0.058248 -1.006250
v 0.781561 0.018399 -1.006250
v 0.557537 0.007420 -1.006250
v 0.335315 0.061370 -1.006250
v 0.113093 0.114635 -1.006250
v -0.109129 0.114635 -1.006250
v -0.331351 0.061370 -1.006250
v -0.553574 0.017544 -1.006250
v -0.779879 0.002211 -1.006250
v -0.993935 0.061898 -1.006250
vt 0.014356 0.989445
vt 0.014357 0.881524
vt 0.122278 0.881525
vt 0.122277 0.989446
vt 0.014364 0.331495
vt 0.014365 0.220440
vt 0.122284 0.220441
vt 0.122283 0.331495
vt 0.014362 0.442471
vt 0.122282 0.442472
vt 0.014361 0.550391
vt 0.122281 0.550392
vt 0.014359 0.661368
vt 0.122280 0.661369
vt 0.014358 0.771368
vt 0.122279 0.771369
vt 0.014365 0.111516
vt 0.014366 0.003596
vt 0.122285 0.003597
vt 0.122284 0.111516
vt 0.230201 0.550393
vt 0.230201 0.661370
vt 0.230200 0.771370
vt 0.230204 0.003597
vt 0.230204 0.111517
vt 0.230199 0.881526
vt 0.230203 0.220442
vt 0.230199 0.989447
vt 0.230203 0.331496
vt 0.230202 0.442473
vt 0.338122 0.550394
vt 0.338121 0.661371
vt 0.338121 0.771370
vt 0.338124 0.003598
vt 0.338123 0.111517
vt 0.338120 0.881526
vt 0.338123 0.220442
vt 0.338120 0.989447
vt 0.338123 0.331497
vt 0.338122 0.442473
vt 0.446042 0.442474
vt 0.446042 0.550394
vt 0.446042 0.661371
vt 0.446041 0.771370
vt 0.446043 0.003598
vt 0.446043 0.111517
vt 0.446041 0.881526
vt 0.446043 0.220442
vt 0.446041 0.989447
vt 0.446043 0.331497
vt 0.553962 0.442474
vt 0.553962 0.550394
vt 0.553962 0.661371
vt 0.553962 0.771371
vt 0.553963 0.003597
vt 0.553963 0.111517
vt 0.553962 0.881526
vt 0.553963 0.220442
vt 0.553962 0.989447
vt 0.553963 0.331497
vt 0.661883 0.331497
vt 0.661883 0.442474
vt 0.661882 0.550394
vt 0.661882 0.661371
vt 0.661882 0.771371
vt 0.661883 0.003597
vt 0.661883 0.111517
vt 0.661882 0.881526
vt 0.661883 0.220442
vt 0.661883 0.989446
vt 0.769803 0.331497
vt 0.769803 0.442474
vt 0.769802 0.550394
vt 0.769802 0.661371
vt 0.769803 0.771370
vt 0.769803 0.003597
vt 0.769803 0.111517
vt 0.769803 0.881525
vt 0.769803 0.220442
vt 0.769803 0.989446
vt 0.877723 0.220442
vt 0.877723 0.331498
vt 0.877723 0.442474
vt 0.877723 0.550394
vt 0.877722 0.661371
vt 0.877723 0.771370
vt 0.877723 0.003596
vt 0.877723 0.111517
vt 0.877723 0.881525
vt 0.877724 0.989446
vt 0.985643 0.881525
vt 0.985644 0.989445
vt 0.985644 0.220442
vt 0.985643 0.331498
vt 0.985643 0.442475
vt 0.985642 0.550395
vt 0.985642 0.661371
vt 0.985643 0.771370
vt 0.985644 0.003596
vt 0.985644 0.111517
vn 0.268563 0.963225 0.000000
vn 0.101962 0.994781 0.000000
vn 0.234504 0.972106 0.000000
vn 0.094455 0.995514 0.000000
vn 0.117344 0.993072 0.000000
vn -0.117344 0.993072 0.000000
vn -0.213324 0.976959 0.000000
vn -0.130802 0.991394 0.000000
vn -0.114353 0.993408 0.000000
vn -0.179296 0.983764 0.000000
s 1
f 10/1/1 9/2/2 19/3/2 20/4/1
f 4/5/3 3/6/4 13/7/4 14/8/3
f 5/9/5 4/5/3 14/8/3 15/10/5
f 6/11/6 5/9/5 15/10/5 16/12/6
f 7/13/7 6/11/6 16/12/6 17/14/7
f 8/15/8 7/13/7 17/14/7 18/16/8
f 2/17/9 1/18/10 11/19/10 12/20/9
f 9/2/2 8/15/8 18/16/8 19/3/2
f 3/6/4 2/17/9 12/20/9 13/7/4
f 17/14/7 16/12/6 26/21/6 27/22/7
f 18/16/8 17/14/7 27/22/7 28/23/8
f 12/20/9 11/19/10 21/24/10 22/25/9
f 19/3/2 18/16/8 28/23/8 29/26/2
f 13/7/4 12/20/9 22/25/9 23/27/4
f 20/4/1 19/3/2 29/26/2 30/28/1
f 14/8/3 13/7/4 23/27/4 24/29/3
f 15/10/5 14/8/3 24/29/3 25/30/5
f 16/12/6 15/10/5 25/30/5 26/21/6
f 27/22/7 26/21/6 36/31/6 37/32/7
f 28/23/8 27/22/7 37/32/7 38/33/8
f 22/25/9 21/24/10 31/34/10 32/35/9
f 29/26/2 28/23/8 38/33/8 39/36/2
f 23/27/4 22/25/9 32/35/9 33/37/4
f 30/28/1 29/26/2 39/36/2 40/38/1
f 24/29/3 23/27/4 33/37/4 34/39/3
f 25/30/5 24/29/3 34/39/3 35/40/5
f 26/21/6 25/30/5 35/40/5 36/31/6
f 36/31/6 35/40/5 45/41/5 46/42/6
f 37/32/7 36/31/6 46/42/6 47/43/7
f 38/33/8 37/32/7 47/43/7 48/44/8
f 32/35/9 31/34/10 41/45/10 42/46/9
f 39/36/2 38/33/8 48/44/8 49/47/2
f 33/37/4 32/35/9 42/46/9 43/48/4
f 40/38/1 39/36/2 49/47/2 50/49/1
f 34/39/3 33/37/4 43/48/4 44/50/3
f 35/40/5 34/39/3 44/50/3 45/41/5
f 46/42/6 45/41/5 55/51/5 56/52/6
f 47/43/7 46/42/6 56/52/6 57/53/7
f 48/44/8 47/43/7 57/53/7 58/54/8
f 42/46/9 41/45/10 51/55/10 52/56/9
f 49/47/2 48/44/8 58/54/8 59/57/2
f 43/48/4 42/46/9 52/56/9 53/58/4
f 50/49/1 49/47/2 59/57/2 60/59/1
f 44/50/3 43/48/4 53/58/4 54/60/3
f 45/41/5 44/50/3 54/60/3 55/51/5
f 55/51/5 54/60/3 64/61/3 65/62/5
f 56/52/6 55/51/5 65/62/5 66/63/6
f 57/53/7 56/52/6 66/63/6 67/64/7
f 58/54/8 57/53/7 67/64/7 68/65/8
f 52/56/9 51/55/10 61/66/10 62/67/9
f 59/57/2 58/54/8 68/65/8 69/68/2
f 53/58/4 52/56/9 62/67/9 63/69/4
f 60/59/1 59/57/2 69/68/2 70/70/1
f 54/60/3 53/58/4 63/69/4 64/61/3
f 65/62/5 64/61/3 74/71/3 75/72/5
f 66/63/6 65/62/5 75/72/5 76/73/6
f 67/64/7 66/63/6 76/73/6 77/74/7
f 68/65/8 67/64/7 77/74/7 78/75/8
f 62/67/9 61/66/10 71/76/10 72/77/9
f 69/68/2 68/65/8 78/75/8 79/78/2
f 63/69/4 62/67/9 72/77/9 73/79/4
f 70/70/1 69/68/2 79/78/2 80/80/1
f 64/61/3 63/69/4 73/79/4 74/71/3
f 74/71/3 73/79/4 83/81/4 84/82/3
f 75/72/5 74/71/3 84/82/3 85/83/5
f 76/73/6 75/72/5 85/83/5 86/84/6
f 77/74/7 76/73/6 86/84/6 87/85/7
f 78/75/8 77/74/7 87/85/7 88/86/8
f 72/77/9 71/76/10 81/87/10 82/88/9
f 79/78/2 78/75/8 88/86/8 89/89/2
f 73/79/4 72/77/9 82/88/9 83/81/4
f 80/80/1 79/78/2 89/89/2 90/90/1
f 90/90/1 89/89/2 99/91/2 100/92/1
f 84/82/3 83/81/4 93/93/4 94/94/3
f 85/83/5 84/82/3 94/94/3 95/95/5
f 86/84/6 85/83/5 95/95/5 96/96/6
f 87/85/7 86/84/6 96/96/6 97/97/7
f 88/86/8 87/85/7 97/97/7 98/98/8
f 82/88/9 81/87/10 91/99/10 92/100/9
f 89/89/2 88/86/8 98/98/8 99/91/2
f 83/81/4 82/88/9 92/100/9 93/93/4
