# This file uses centimeters as units for non-parametric coordinates.

mtllib Door.mtl
g default
v 3.029301 0.000000 0.305086
v 3.029301 0.000000 -0.305086
v 3.029301 8.790142 0.305086
v 3.029301 8.790142 -0.305086
v -2.309905 8.790142 0.305086
v -2.309905 8.790142 -0.305086
v -2.309905 0.000000 0.305086
v -2.309905 0.000000 -0.305086
vt 0.872818 0.379125
vt 0.264606 0.446500
vt 0.020306 0.446500
vt 0.020306 0.931939
vt 0.264606 0.931939
vt 0.529638 0.523546
vt 0.764429 0.523546
vt 0.764429 0.954196
vt 0.529638 0.954196
vt 0.909113 0.379125
vt 0.909113 0.990202
vt 0.872818 0.990202
vt 0.379772 0.955251
vt 0.422468 0.955251
vt 0.422468 0.436392
vt 0.379772 0.436392
vn 1.000000 0.000000 0.000000
vn 1.000000 0.000000 0.000000
vn 1.000000 0.000000 0.000000
vn 1.000000 0.000000 0.000000
vn -1.000000 0.000000 -0.000000
vn -1.000000 0.000000 -0.000000
vn -1.000000 0.000000 -0.000000
vn -1.000000 0.000000 -0.000000
vn 0.000000 0.000000 -1.000000
vn 0.000000 0.000000 -1.000000
vn 0.000000 0.000000 -1.000000
vn 0.000000 0.000000 -1.000000
vn 0.000000 0.000000 1.000000
vn 0.000000 0.000000 1.000000
vn 0.000000 0.000000 1.000000
vn 0.000000 0.000000 1.000000
s off
g pCube1
usemtl initialShadingGroup1
f 1/1/1 2/10/2 4/11/3 3/12/4
f 5/13/5 6/14/6 8/15/7 7/16/8
f 2/2/9 8/3/10 6/4/11 4/5/12
f 7/6/13 1/7/14 3/8/15 5/9/16
g default
v -1.678994 3.587720 0.551484
v -1.713563 3.587720 0.526368
v -1.756293 3.587720 0.526368
v -1.790862 3.587720 0.551484
v -1.804066 3.587720 0.592122
v -1.790862 3.587720 0.632761
v -1.756293 3.587720 0.657877
v -1.713563 3.587720 0.657877
v -1.678994 3.587720 0.632761
v -1.665790 3.587720 0.592122
v -1.628536 3.619499 0.514824
v -1.694290 3.619499 0.467050
v -1.775567 3.619499 0.467050
v -1.841321 3.619499 0.514824
v -1.866437 3.619499 0.592122
v -1.841321 3.619499 0.669422
v -1.775567 3.619499 0.717195
v -1.694290 3.619499 0.717195
v -1.628536 3.619499 0.669422
v -1.603419 3.619499 0.592122
v -1.588491 3.668997 0.485730
v -1.678994 3.668997 0.419975
v -1.790862 3.668997 0.419975
v -1.881365 3.668997 0.485730
v -1.915935 3.668997 0.592122
v -1.881365 3.668996 0.698516
v -1.790862 3.668996 0.764270
v -1.678994 3.668996 0.764270
v -1.588491 3.668996 0.698516
v -1.553922 3.668997 0.592123
v -1.562781 3.731367 0.467050
v -1.669173 3.731367 0.389752
v -1.800683 3.731367 0.389752
v -1.907075 3.731367 0.467050
v -1.947714 3.731367 0.592122
v -1.907075 3.731367 0.717195
v -1.800683 3.731367 0.794494
v -1.669173 3.731367 0.794494
v -1.562781 3.731367 0.717195
v -1.522142 3.731367 0.592122
v -1.553922 3.800506 0.460613
v -1.665790 3.800506 0.379337
v -1.804066 3.800506 0.379337
v -1.915935 3.800506 0.460614
v -1.958665 3.800506 0.592123
v -1.915935 3.800506 0.723632
v -1.804066 3.800506 0.804909
v -1.665790 3.800506 0.804909
v -1.553922 3.800506 0.723632
v -1.511192 3.800506 0.592122
v -1.562781 3.869644 0.467050
v -1.669173 3.869644 0.389752
v -1.800683 3.869644 0.389752
v -1.907075 3.869644 0.467050
v -1.947714 3.869644 0.592122
v -1.907075 3.869644 0.717195
v -1.800683 3.869644 0.794494
v -1.669173 3.869644 0.794494
v -1.562781 3.869644 0.717195
v -1.522142 3.869644 0.592122
v -1.588491 3.932015 0.485730
v -1.678994 3.932015 0.419975
v -1.790862 3.932015 0.419975
v -1.881365 3.932015 0.485730
v -1.915935 3.932015 0.592122
v -1.881365 3.932015 0.698516
v -1.790862 3.932015 0.764270
v -1.678994 3.932015 0.764270
v -1.588491 3.932015 0.698516
v -1.553922 3.932015 0.592122
v -1.628536 3.981512 0.514824
v -1.694290 3.981512 0.467050
v -1.775567 3.981512 0.467050
v -1.841321 3.981512 0.514824
v -1.866437 3.981512 0.592122
v -1.841321 3.981512 0.669422
v -1.775567 3.981512 0.717195
v -1.694290 3.981512 0.717195
v -1.628536 3.981512 0.669421
v -1.603419 3.981512 0.592122
v -1.678994 4.013291 0.551484
v -1.713563 4.013291 0.526368
v -1.756293 4.013291 0.526368
v -1.790862 4.013291 0.551484
v -1.804066 4.013291 0.592122
v -1.790862 4.013291 0.632761
v -1.756293 4.013291 0.657877
v -1.713563 4.013291 0.657877
v -1.678994 4.013291 0.632761
v -1.665790 4.013291 0.592122
v -1.734928 3.576770 0.592122
v -1.734928 4.024241 0.592122
vt 0.327362 0.041777
vt 0.294559 0.041777
vt 0.032130 0.015179
vt 0.032130 0.041777
vt 0.064934 0.015179
vt 0.064933 0.041777
vt 0.097737 0.015179
vt 0.097737 0.041777
vt 0.130540 0.015179
vt 0.130541 0.041777
vt 0.163344 0.041777
vt 0.196148 0.041777
vt 0.228951 0.041777
vt 0.261755 0.041777
vt 0.327362 0.083205
vt 0.294559 0.083205
vt 0.032130 0.083205
vt 0.064933 0.083205
vt 0.097737 0.083205
vt 0.130541 0.083205
vt 0.163344 0.083205
vt 0.196148 0.083205
vt 0.228951 0.083205
vt 0.261755 0.083205
vt 0.327362 0.135406
vt 0.294559 0.135406
vt 0.032130 0.135406
vt 0.064933 0.135406
vt 0.097737 0.135406
vt 0.130540 0.135406
vt 0.163344 0.135406
vt 0.196148 0.135406
vt 0.228951 0.135406
vt 0.261755 0.135406
vt 0.327362 0.193273
vt 0.294559 0.193273
vt 0.032130 0.193273
vt 0.064933 0.193273
vt 0.097737 0.193273
vt 0.130541 0.193273
vt 0.163344 0.193273
vt 0.196148 0.193273
vt 0.228951 0.193273
vt 0.261755 0.193273
vt 0.327362 0.251139
vt 0.294559 0.251139
vt 0.032130 0.251139
vt 0.064933 0.251139
vt 0.097737 0.251139
vt 0.130540 0.251139
vt 0.163344 0.251139
vt 0.196148 0.251139
vt 0.228951 0.251139
vt 0.261755 0.251139
vt 0.327362 0.303341
vt 0.294559 0.303341
vt 0.032130 0.303341
vt 0.064933 0.303341
vt 0.097737 0.303341
vt 0.130541 0.303341
vt 0.163344 0.303341
vt 0.196148 0.303341
vt 0.228951 0.303341
vt 0.261755 0.303341
vt 0.327362 0.344768
vt 0.294559 0.344768
vt 0.032130 0.344768
vt 0.064933 0.344768
vt 0.097737 0.344768
vt 0.130541 0.344768
vt 0.163344 0.344768
vt 0.196148 0.344768
vt 0.228951 0.344768
vt 0.261755 0.344768
vt 0.032130 0.371366
vt 0.064934 0.371366
vt 0.097737 0.371366
vt 0.130540 0.371366
vt 0.163344 0.371366
vt 0.027793 0.006014
vt 0.027793 0.380531
vt 0.360166 0.015179
vt 0.360166 0.041777
vt 0.360166 0.083205
vt 0.360166 0.135406
vt 0.360166 0.193273
vt 0.360166 0.251139
vt 0.360166 0.303341
vt 0.360166 0.344768
vt 0.294558 0.015179
vt 0.327362 0.015179
vt 0.163344 0.015179
vt 0.196148 0.015179
vt 0.228952 0.015179
vt 0.355829 0.006014
vt 0.261755 0.015179
vt 0.327362 0.371366
vt 0.360166 0.371366
vt 0.196148 0.371366
vt 0.491380 0.371366
vt 0.228952 0.371366
vt 0.261755 0.371366
vt 0.294558 0.371366
vt 0.355829 0.380531
vn 0.277582 -0.881466 -0.382055
vn 0.277582 -0.881466 -0.382054
vn 0.277582 -0.881466 -0.382054
vn 0.277582 -0.881466 -0.382054
vn 0.000000 -0.881468 -0.472244
vn 0.000000 -0.881468 -0.472244
vn 0.000000 -0.881468 -0.472244
vn 0.000000 -0.881468 -0.472244
vn -0.277578 -0.881468 -0.382053
vn -0.277578 -0.881468 -0.382053
vn -0.277578 -0.881468 -0.382053
vn -0.277578 -0.881468 -0.382053
vn -0.449131 -0.881468 -0.145931
vn -0.449131 -0.881468 -0.145931
vn -0.449131 -0.881468 -0.145931
vn -0.449131 -0.881468 -0.145931
vn -0.449131 -0.881468 0.145932
vn -0.449131 -0.881468 0.145932
vn -0.449131 -0.881468 0.145932
vn -0.449131 -0.881468 0.145932
vn -0.277578 -0.881468 0.382053
vn -0.277578 -0.881468 0.382053
vn -0.277578 -0.881468 0.382053
vn -0.277578 -0.881468 0.382053
vn 0.000000 -0.881468 0.472244
vn 0.000000 -0.881468 0.472244
vn 0.000000 -0.881468 0.472244
vn 0.000000 -0.881468 0.472244
vn 0.277578 -0.881468 0.382053
vn 0.277578 -0.881468 0.382053
vn 0.277578 -0.881468 0.382053
vn 0.277578 -0.881468 0.382053
vn 0.449131 -0.881468 0.145931
vn 0.449131 -0.881468 0.145931
vn 0.449131 -0.881468 0.145931
vn 0.449131 -0.881468 0.145931
vn 0.449131 -0.881468 -0.145931
vn 0.449131 -0.881468 -0.145931
vn 0.449131 -0.881468 -0.145931
vn 0.449131 -0.881468 -0.145931
vn 0.425919 -0.689152 -0.586228
vn 0.425919 -0.689152 -0.586228
vn 0.425919 -0.689152 -0.586228
vn 0.425919 -0.689152 -0.586228
vn 0.000000 -0.689152 -0.724617
vn 0.000000 -0.689152 -0.724617
vn 0.000000 -0.689152 -0.724617
vn 0.000000 -0.689152 -0.724617
vn -0.425919 -0.689152 -0.586227
vn -0.425919 -0.689152 -0.586227
vn -0.425919 -0.689152 -0.586227
vn -0.425919 -0.689152 -0.586227
vn -0.689152 -0.689152 -0.223919
vn -0.689152 -0.689152 -0.223919
vn -0.689152 -0.689152 -0.223919
vn -0.689152 -0.689152 -0.223919
vn -0.689152 -0.689152 0.223919
vn -0.689152 -0.689152 0.223919
vn -0.689152 -0.689152 0.223919
vn -0.689152 -0.689152 0.223919
vn -0.425919 -0.689152 0.586228
vn -0.425919 -0.689152 0.586228
vn -0.425919 -0.689152 0.586228
vn -0.425919 -0.689152 0.586227
vn 0.000000 -0.689152 0.724617
vn 0.000000 -0.689152 0.724617
vn 0.000000 -0.689152 0.724617
vn 0.000000 -0.689152 0.724617
vn 0.425919 -0.689152 0.586227
vn 0.425919 -0.689152 0.586227
vn 0.425919 -0.689152 0.586227
vn 0.425919 -0.689152 0.586227
vn 0.689152 -0.689152 0.223919
vn 0.689152 -0.689152 0.223919
vn 0.689152 -0.689152 0.223919
vn 0.689152 -0.689152 0.223919
vn 0.689152 -0.689152 -0.223919
vn 0.689152 -0.689152 -0.223919
vn 0.689152 -0.689152 -0.223919
vn 0.689152 -0.689152 -0.223919
vn 0.528952 -0.436084 -0.728039
vn 0.528952 -0.436084 -0.728039
vn 0.528952 -0.436084 -0.728039
vn 0.528952 -0.436084 -0.728039
vn 0.000000 -0.436084 -0.899906
vn 0.000000 -0.436084 -0.899906
vn 0.000000 -0.436084 -0.899906
vn 0.000000 -0.436084 -0.899906
vn -0.528952 -0.436083 -0.728039
vn -0.528952 -0.436083 -0.728039
vn -0.528952 -0.436084 -0.728039
vn -0.528952 -0.436084 -0.728039
vn -0.855862 -0.436084 -0.278086
vn -0.855862 -0.436084 -0.278086
vn -0.855862 -0.436084 -0.278086
vn -0.855862 -0.436084 -0.278086
vn -0.855862 -0.436083 0.278086
vn -0.855862 -0.436083 0.278086
vn -0.855862 -0.436083 0.278086
vn -0.855862 -0.436083 0.278086
vn -0.528951 -0.436083 0.728040
vn -0.528951 -0.436083 0.728040
vn -0.528952 -0.436083 0.728040
vn -0.528951 -0.436083 0.728040
vn 0.000000 -0.436083 0.899906
vn 0.000000 -0.436083 0.899906
vn 0.000000 -0.436083 0.899906
vn 0.000000 -0.436083 0.899906
vn 0.528952 -0.436083 0.728039
vn 0.528952 -0.436083 0.728039
vn 0.528952 -0.436083 0.728039
vn 0.528952 -0.436083 0.728039
vn 0.855862 -0.436084 0.278086
vn 0.855862 -0.436084 0.278086
vn 0.855862 -0.436083 0.278086
vn 0.855862 -0.436083 0.278086
vn 0.855862 -0.436084 -0.278086
vn 0.855862 -0.436084 -0.278086
vn 0.855862 -0.436084 -0.278086
vn 0.855862 -0.436084 -0.278086
vn 0.581228 -0.148952 -0.799992
vn 0.581228 -0.148952 -0.799992
vn 0.581228 -0.148952 -0.799992
vn 0.581228 -0.148952 -0.799992
vn 0.000000 -0.148952 -0.988845
vn 0.000000 -0.148952 -0.988845
vn 0.000000 -0.148952 -0.988845
vn 0.000000 -0.148952 -0.988845
vn -0.581228 -0.148952 -0.799992
vn -0.581228 -0.148952 -0.799992
vn -0.581228 -0.148952 -0.799992
vn -0.581228 -0.148952 -0.799992
vn -0.940447 -0.148952 -0.305570
vn -0.940447 -0.148952 -0.305570
vn -0.940447 -0.148952 -0.305570
vn -0.940447 -0.148952 -0.305570
vn -0.940447 -0.148952 0.305570
vn -0.940447 -0.148952 0.305570
vn -0.940447 -0.148952 0.305570
vn -0.940447 -0.148952 0.305570
vn -0.581228 -0.148952 0.799992
vn -0.581228 -0.148952 0.799992
vn -0.581228 -0.148952 0.799992
vn -0.581228 -0.148952 0.799992
vn 0.000000 -0.148952 0.988844
vn 0.000000 -0.148952 0.988844
vn 0.000000 -0.148952 0.988844
vn 0.000000 -0.148952 0.988844
vn 0.581228 -0.148952 0.799992
vn 0.581228 -0.148952 0.799992
vn 0.581228 -0.148952 0.799992
vn 0.581228 -0.148952 0.799992
vn 0.940447 -0.148952 0.305570
vn 0.940447 -0.148952 0.305570
vn 0.940447 -0.148952 0.305570
vn 0.940447 -0.148952 0.305570
vn 0.940447 -0.148952 -0.305570
vn 0.940447 -0.148952 -0.305570
vn 0.940447 -0.148952 -0.305570
vn 0.940447 -0.148952 -0.305570
vn 0.581228 0.148952 -0.799992
vn 0.581228 0.148952 -0.799992
vn 0.581228 0.148952 -0.799992
vn 0.581228 0.148952 -0.799992
vn 0.000000 0.148952 -0.988845
vn 0.000000 0.148952 -0.988845
vn 0.000000 0.148952 -0.988845
vn 0.000000 0.148952 -0.988845
vn -0.581228 0.148952 -0.799992
vn -0.581228 0.148952 -0.799992
vn -0.581228 0.148952 -0.799992
vn -0.581228 0.148952 -0.799992
vn -0.940447 0.148952 -0.305570
vn -0.940447 0.148952 -0.305570
vn -0.940447 0.148952 -0.305570
vn -0.940447 0.148952 -0.305570
vn -0.940447 0.148952 0.305570
vn -0.940447 0.148952 0.305570
vn -0.940447 0.148952 0.305570
vn -0.940447 0.148952 0.305570
vn -0.581228 0.148952 0.799992
vn -0.581228 0.148952 0.799992
vn -0.581228 0.148952 0.799992
vn -0.581228 0.148952 0.799992
vn 0.000000 0.148952 0.988844
vn 0.000000 0.148952 0.988844
vn 0.000000 0.148952 0.988844
vn 0.000000 0.148952 0.988844
vn 0.581228 0.148952 0.799992
vn 0.581228 0.148952 0.799992
vn 0.581228 0.148952 0.799992
vn 0.581228 0.148952 0.799992
vn 0.940447 0.148952 0.305570
vn 0.940447 0.148952 0.305570
vn 0.940447 0.148952 0.305570
vn 0.940447 0.148952 0.305570
vn 0.940447 0.148952 -0.305570
vn 0.940447 0.148952 -0.305570
vn 0.940447 0.148952 -0.305570
vn 0.940447 0.148952 -0.305570
vn 0.528952 0.436084 -0.728039
vn 0.528952 0.436084 -0.728039
vn 0.528952 0.436084 -0.728039
vn 0.528952 0.436084 -0.728039
vn 0.000000 0.436084 -0.899906
vn 0.000000 0.436084 -0.899906
vn 0.000000 0.436084 -0.899906
vn 0.000000 0.436084 -0.899906
vn -0.528952 0.436084 -0.728039
vn -0.528952 0.436084 -0.728039
vn -0.528952 0.436083 -0.728039
vn -0.528952 0.436083 -0.728039
vn -0.855862 0.436084 -0.278086
vn -0.855862 0.436084 -0.278086
vn -0.855862 0.436084 -0.278086
vn -0.855862 0.436084 -0.278086
vn -0.855862 0.436084 0.278086
vn -0.855862 0.436084 0.278086
vn -0.855862 0.436083 0.278086
vn -0.855862 0.436083 0.278086
vn -0.528952 0.436083 0.728040
vn -0.528952 0.436083 0.728040
vn -0.528951 0.436083 0.728040
vn -0.528951 0.436083 0.728040
vn 0.000000 0.436083 0.899906
vn 0.000000 0.436083 0.899906
vn 0.000000 0.436083 0.899906
vn 0.000000 0.436083 0.899906
vn 0.528952 0.436083 0.728039
vn 0.528952 0.436083 0.728039
vn 0.528952 0.436083 0.728039
vn 0.528952 0.436083 0.728039
vn 0.855862 0.436084 0.278086
vn 0.855862 0.436084 0.278086
vn 0.855862 0.436084 0.278086
vn 0.855862 0.436084 0.278086
vn 0.855862 0.436084 -0.278086
vn 0.855862 0.436084 -0.278086
vn 0.855862 0.436084 -0.278086
vn 0.855862 0.436084 -0.278086
vn 0.425919 0.689152 -0.586228
vn 0.425919 0.689152 -0.586228
vn 0.425919 0.689152 -0.586228
vn 0.425919 0.689152 -0.586228
vn 0.000000 0.689152 -0.724617
vn 0.000000 0.689152 -0.724617
vn 0.000000 0.689152 -0.724617
vn 0.000000 0.689152 -0.724617
vn -0.425919 0.689152 -0.586227
vn -0.425919 0.689152 -0.586228
vn -0.425919 0.689152 -0.586227
vn -0.425919 0.689152 -0.586227
vn -0.689152 0.689152 -0.223919
vn -0.689152 0.689152 -0.223919
vn -0.689152 0.689152 -0.223919
vn -0.689152 0.689152 -0.223919
vn -0.689152 0.689152 0.223919
vn -0.689152 0.689152 0.223919
vn -0.689152 0.689152 0.223919
vn -0.689152 0.689152 0.223919
vn -0.425919 0.689152 0.586228
vn -0.425919 0.689152 0.586228
vn -0.425919 0.689152 0.586228
vn -0.425919 0.689152 0.586228
vn 0.000000 0.689152 0.724617
vn 0.000000 0.689152 0.724617
vn 0.000000 0.689152 0.724617
vn 0.000000 0.689152 0.724617
vn 0.425919 0.689152 0.586227
vn 0.425919 0.689152 0.586227
vn 0.425919 0.689152 0.586227
vn 0.425919 0.689152 0.586227
vn 0.689152 0.689152 0.223919
vn 0.689152 0.689152 0.223919
vn 0.689152 0.689152 0.223919
vn 0.689152 0.689152 0.223919
vn 0.689152 0.689152 -0.223919
vn 0.689152 0.689152 -0.223919
vn 0.689152 0.689152 -0.223919
vn 0.689152 0.689152 -0.223919
vn 0.277578 0.881468 -0.382053
vn 0.277578 0.881468 -0.382053
vn 0.277578 0.881468 -0.382053
vn 0.277578 0.881468 -0.382053
vn 0.000000 0.881468 -0.472244
vn 0.000000 0.881468 -0.472244
vn 0.000000 0.881468 -0.472244
vn 0.000000 0.881468 -0.472244
vn -0.277578 0.881468 -0.382053
vn -0.277578 0.881468 -0.382053
vn -0.277578 0.881468 -0.382053
vn -0.277578 0.881468 -0.382053
vn -0.449131 0.881468 -0.145931
vn -0.449131 0.881468 -0.145931
vn -0.449131 0.881468 -0.145931
vn -0.449131 0.881468 -0.145931
vn -0.449131 0.881468 0.145931
vn -0.449131 0.881468 0.145931
vn -0.449131 0.881468 0.145931
vn -0.449131 0.881468 0.145931
vn -0.277578 0.881468 0.382053
vn -0.277578 0.881468 0.382053
vn -0.277578 0.881468 0.382053
vn -0.277578 0.881468 0.382053
vn 0.000000 0.881468 0.472244
vn 0.000000 0.881468 0.472244
vn 0.000000 0.881468 0.472244
vn 0.000000 0.881468 0.472244
vn 0.277578 0.881468 0.382053
vn 0.277578 0.881468 0.382053
vn 0.277578 0.881468 0.382053
vn 0.277578 0.881468 0.382053
vn 0.449131 0.881468 0.145931
vn 0.449131 0.881468 0.145931
vn 0.449131 0.881468 0.145931
vn 0.449131 0.881468 0.145931
vn 0.449131 0.881468 -0.145931
vn 0.449131 0.881468 -0.145931
vn 0.449131 0.881468 -0.145931
vn 0.449131 0.881468 -0.145931
vn 0.096557 -0.986415 -0.132899
vn 0.096557 -0.986415 -0.132899
vn 0.096557 -0.986415 -0.132899
vn 0.000000 -0.986415 -0.164273
vn 0.000000 -0.986415 -0.164273
vn 0.000000 -0.986415 -0.164273
vn -0.096557 -0.986415 -0.132900
vn -0.096557 -0.986415 -0.132900
vn -0.096557 -0.986415 -0.132900
vn -0.156233 -0.986415 -0.050764
vn -0.156233 -0.986415 -0.050764
vn -0.156233 -0.986415 -0.050764
vn -0.156233 -0.986415 0.050764
vn -0.156233 -0.986415 0.050764
vn -0.156233 -0.986415 0.050764
vn -0.096557 -0.986415 0.132899
vn -0.096557 -0.986415 0.132899
vn -0.096557 -0.986415 0.132899
vn 0.000000 -0.986415 0.164273
vn 0.000000 -0.986415 0.164273
vn 0.000000 -0.986415 0.164273
vn 0.096557 -0.986415 0.132900
vn 0.096557 -0.986415 0.132900
vn 0.096557 -0.986415 0.132900
vn 0.156233 -0.986415 0.050764
vn 0.156233 -0.986415 0.050764
vn 0.156233 -0.986415 0.050764
vn 0.156233 -0.986415 -0.050764
vn 0.156233 -0.986415 -0.050764
vn 0.156233 -0.986415 -0.050764
vn 0.096557 0.986415 -0.132899
vn 0.096557 0.986415 -0.132899
vn 0.096557 0.986415 -0.132899
vn 0.000000 0.986415 -0.164273
vn 0.000000 0.986415 -0.164273
vn 0.000000 0.986415 -0.164273
vn -0.096557 0.986415 -0.132899
vn -0.096557 0.986415 -0.132899
vn -0.096557 0.986415 -0.132899
vn -0.156233 0.986415 -0.050764
vn -0.156233 0.986415 -0.050764
vn -0.156233 0.986415 -0.050764
vn -0.156233 0.986415 0.050764
vn -0.156233 0.986415 0.050764
vn -0.156233 0.986415 0.050764
vn -0.096557 0.986415 0.132900
vn -0.096557 0.986415 0.132900
vn -0.096557 0.986415 0.132900
vn 0.000000 0.986415 0.164273
vn 0.000000 0.986415 0.164273
vn 0.000000 0.986415 0.164273
vn 0.096557 0.986415 0.132899
vn 0.096557 0.986415 0.132899
vn 0.096557 0.986415 0.132899
vn 0.156233 0.986415 0.050764
vn 0.156233 0.986415 0.050764
vn 0.156233 0.986415 0.050764
vn 0.156233 0.986415 -0.050764
vn 0.156233 0.986415 -0.050764
vn 0.156233 0.986415 -0.050764
s off
g pSphere1
usemtl initialShadingGroup1
f 9/106/17 10/107/18 20/17/19 19/18/20
f 10/107/21 11/98/22 21/99/23 20/17/24
f 11/19/25 12/21/26 22/22/27 21/20/28
f 12/21/29 13/23/30 23/24/31 22/22/32
f 13/23/33 14/25/34 24/26/35 23/24/36
f 14/25/37 15/108/38 25/27/39 24/26/40
f 15/108/41 16/109/42 26/28/43 25/27/44
f 16/109/45 17/110/46 27/29/47 26/28/48
f 17/110/49 18/112/50 28/30/51 27/29/52
f 18/112/53 9/106/54 19/18/55 28/30/56
f 19/18/57 20/17/58 30/31/59 29/32/60
f 20/17/61 21/99/62 31/100/63 30/31/64
f 21/20/65 22/22/66 32/34/67 31/33/68
f 22/22/69 23/24/70 33/35/71 32/34/72
f 23/24/73 24/26/74 34/36/75 33/35/76
f 24/26/77 25/27/78 35/37/79 34/36/80
f 25/27/81 26/28/82 36/38/83 35/37/84
f 26/28/85 27/29/86 37/39/87 36/38/88
f 27/29/89 28/30/90 38/40/91 37/39/92
f 28/30/93 19/18/94 29/32/95 38/40/96
f 29/32/97 30/31/98 40/41/99 39/42/100
f 30/31/101 31/100/102 41/101/103 40/41/104
f 31/33/105 32/34/106 42/44/107 41/43/108
f 32/34/109 33/35/110 43/45/111 42/44/112
f 33/35/113 34/36/114 44/46/115 43/45/116
f 34/36/117 35/37/118 45/47/119 44/46/120
f 35/37/121 36/38/122 46/48/123 45/47/124
f 36/38/125 37/39/126 47/49/127 46/48/128
f 37/39/129 38/40/130 48/50/131 47/49/132
f 38/40/133 29/32/134 39/42/135 48/50/136
f 39/42/137 40/41/138 50/51/139 49/52/140
f 40/41/141 41/101/142 51/102/143 50/51/144
f 41/43/145 42/44/146 52/54/147 51/53/148
f 42/44/149 43/45/150 53/55/151 52/54/152
f 43/45/153 44/46/154 54/56/155 53/55/156
f 44/46/157 45/47/158 55/57/159 54/56/160
f 45/47/161 46/48/162 56/58/163 55/57/164
f 46/48/165 47/49/166 57/59/167 56/58/168
f 47/49/169 48/50/170 58/60/171 57/59/172
f 48/50/173 39/42/174 49/52/175 58/60/176
f 49/52/177 50/51/178 60/61/179 59/62/180
f 50/51/181 51/102/182 61/103/183 60/61/184
f 51/53/185 52/54/186 62/64/187 61/63/188
f 52/54/189 53/55/190 63/65/191 62/64/192
f 53/55/193 54/56/194 64/66/195 63/65/196
f 54/56/197 55/57/198 65/67/199 64/66/200
f 55/57/201 56/58/202 66/68/203 65/67/204
f 56/58/205 57/59/206 67/69/207 66/68/208
f 57/59/209 58/60/210 68/70/211 67/69/212
f 58/60/213 49/52/214 59/62/215 68/70/216
f 59/62/217 60/61/218 70/71/219 69/72/220
f 60/61/221 61/103/222 71/104/223 70/71/224
f 61/63/225 62/64/226 72/74/227 71/73/228
f 62/64/229 63/65/230 73/75/231 72/74/232
f 63/65/233 64/66/234 74/76/235 73/75/236
f 64/66/237 65/67/238 75/77/239 74/76/240
f 65/67/241 66/68/242 76/78/243 75/77/244
f 66/68/245 67/69/246 77/79/247 76/78/248
f 67/69/249 68/70/250 78/80/251 77/79/252
f 68/70/253 59/62/254 69/72/255 78/80/256
f 69/72/257 70/71/258 80/81/259 79/82/260
f 70/71/261 71/104/262 81/105/263 80/81/264
f 71/73/265 72/74/266 82/84/267 81/83/268
f 72/74/269 73/75/270 83/85/271 82/84/272
f 73/75/273 74/76/274 84/86/275 83/85/276
f 74/76/277 75/77/278 85/87/279 84/86/280
f 75/77/281 76/78/282 86/88/283 85/87/284
f 76/78/285 77/79/286 87/89/287 86/88/288
f 77/79/289 78/80/290 88/90/291 87/89/292
f 78/80/293 69/72/294 79/82/295 88/90/296
f 79/82/297 80/81/298 90/113/299 89/119/300
f 80/81/301 81/105/302 91/114/303 90/113/304
f 81/83/305 82/84/306 92/92/307 91/91/308
f 82/84/309 83/85/310 93/93/311 92/92/312
f 83/85/313 84/86/314 94/94/315 93/93/316
f 84/86/317 85/87/318 95/95/319 94/94/320
f 85/87/321 86/88/322 96/115/323 95/95/324
f 86/88/325 87/89/326 97/117/327 96/115/328
f 87/89/329 88/90/330 98/118/331 97/117/332
f 88/90/333 79/82/334 89/119/335 98/118/336
f 10/107/337 9/106/338 99/111/339
f 11/98/340 10/107/341 99/111/342
f 12/21/343 11/19/344 99/96/345
f 13/23/346 12/21/347 99/96/348
f 14/25/349 13/23/350 99/96/351
f 15/108/352 14/25/353 99/96/354
f 16/109/355 15/108/356 99/111/357
f 17/110/358 16/109/359 99/111/360
f 18/112/361 17/110/362 99/111/363
f 9/106/364 18/112/365 99/111/366
f 89/119/367 90/113/368 100/120/369
f 90/113/370 91/114/371 100/120/372
f 91/91/373 92/92/374 100/97/375
f 92/92/376 93/93/377 100/97/378
f 93/93/379 94/94/380 100/97/381
f 94/94/382 95/95/383 100/97/384
f 95/116/385 96/115/386 100/120/387
f 96/115/388 97/117/389 100/120/390
f 97/117/391 98/118/392 100/120/393
f 98/118/394 89/119/395 100/120/396
