# This file uses centimeters as units for non-parametric coordinates.

mtllib SafeDoor.mtl
g default
v -0.884609 0.130929 2.137254
v 1.680307 0.130929 2.137254
v -0.884609 3.830929 2.137254
v 1.680307 3.830929 2.137254
v -0.884609 3.830929 1.948072
v 1.680307 3.830929 1.948072
v -0.884609 0.130929 1.948072
v 1.680307 0.130929 1.948072
v 1.433245 1.630072 2.137254
v 1.511514 1.630072 2.137254
v 1.511514 2.331785 2.137254
v 1.433245 2.331785 2.137254
v 1.433245 1.630072 2.407627
v 1.511514 1.630072 2.407627
v 1.511514 2.331785 2.407627
v 1.433245 2.331785 2.407627
v 1.433245 1.695938 2.138673
v 1.433245 2.265920 2.138673
v 1.433245 1.695938 2.302448
v 1.433245 2.265920 2.302448
v 1.511514 1.690594 2.141329
v 1.511514 2.271263 2.141329
v 1.511514 2.271263 2.327021
v 1.511514 1.690594 2.327021
vt 0.375000 0.000000
vt 0.625000 0.000000
vt 0.375000 0.250000
vt 0.625000 0.250000
vt 0.375000 0.500000
vt 0.625000 0.500000
vt 0.375000 0.750000
vt 0.625000 0.750000
vt 0.375000 1.000000
vt 0.625000 1.000000
vt 0.875000 0.000000
vt 0.875000 0.250000
vt 0.125000 0.000000
vt 0.125000 0.250000
vt 0.375000 0.000000
vt 0.625000 0.000000
vt 0.625000 0.250000
vt 0.375000 0.250000
vt 0.375000 0.000000
vt 0.625000 0.000000
vt 0.625000 0.250000
vt 0.375000 0.250000
vt 0.375000 0.250000
vt 0.375000 0.000000
vt 0.375000 0.000000
vt 0.375000 0.250000
vt 0.625000 0.000000
vt 0.625000 0.250000
vt 0.625000 0.250000
vt 0.625000 0.000000
vn 0.000000 0.000000 1.000000
vn 0.000000 0.000000 1.000000
vn 0.000000 0.000000 1.000000
vn 0.000000 0.000000 1.000000
vn 0.000000 1.000000 0.000000
vn 0.000000 1.000000 0.000000
vn 0.000000 1.000000 0.000000
vn 0.000000 1.000000 0.000000
vn 0.000000 0.000000 -1.000000
vn 0.000000 0.000000 -1.000000
vn 0.000000 0.000000 -1.000000
vn 0.000000 0.000000 -1.000000
vn 0.000000 -1.000000 0.000000
vn 0.000000 -1.000000 0.000000
vn 0.000000 -1.000000 0.000000
vn 0.000000 -1.000000 0.000000
vn 1.000000 0.000000 0.000000
vn 1.000000 0.000000 0.000000
vn 1.000000 0.000000 0.000000
vn 1.000000 0.000000 0.000000
vn -1.000000 0.000000 0.000000
vn -1.000000 0.000000 0.000000
vn -1.000000 0.000000 0.000000
vn -1.000000 0.000000 0.000000
vn -0.000000 0.000000 1.000000
vn 0.000000 0.000000 1.000000
vn 0.000000 0.000000 1.000000
vn -0.000000 0.000000 1.000000
vn 0.000000 0.000000 1.000000
vn 0.000000 0.000000 1.000000
vn -0.000000 0.000000 1.000000
vn -0.000000 0.000000 1.000000
vn 0.000000 -1.000000 0.000000
vn 0.000000 -1.000000 0.000000
vn 0.000000 -1.000000 0.000000
vn 0.000000 -1.000000 0.000000
vn 0.000000 1.000000 0.000000
vn 0.000000 1.000000 0.000000
vn 0.000000 1.000000 0.000000
vn 0.000000 1.000000 0.000000
vn -1.000000 0.000001 0.000000
vn -1.000000 -0.000001 0.000000
vn -1.000000 -0.000001 0.000000
vn -1.000000 0.000001 0.000000
vn -1.000000 -0.000000 0.000000
vn -1.000000 -0.000000 0.000000
vn -1.000000 0.000000 0.000000
vn -1.000000 0.000000 0.000000
vn 1.000000 0.000000 0.000000
vn 1.000000 0.000001 0.000000
vn 1.000000 0.000001 0.000000
vn 1.000000 0.000000 0.000000
vn 1.000000 0.000000 0.000000
vn 1.000000 0.000000 0.000000
vn 1.000000 0.000000 0.000000
vn 1.000000 0.000000 0.000000
vn 0.068112 0.997678 0.000000
vn 0.068112 0.997678 0.000000
vn 0.068112 0.997678 0.000000
vn 0.068112 0.997678 0.000000
vn 0.299544 0.000000 -0.954082
vn 0.299544 0.000000 -0.954082
vn 0.299544 0.000000 -0.954082
vn 0.299544 0.000000 -0.954082
vn 0.068106 -0.997678 0.000000
vn 0.068106 -0.997678 0.000000
vn 0.068106 -0.997678 0.000000
vn 0.068106 -0.997678 0.000000
s off
g pCube2
usemtl initialShadingGroup
f 13/19/1 14/20/2 15/21/3 16/22/4
f 3/3/5 4/4/6 6/6/7 5/5/8
f 5/5/9 6/6/10 8/8/11 7/7/12
f 7/7/13 8/8/14 2/10/15 1/9/16
f 2/2/17 8/11/18 6/12/19 4/4/20
f 7/13/21 1/1/22 3/3/23 5/14/24
s 1
f 1/1/25 2/2/26 10/16/27 9/15/28
f 2/2/26 4/4/29 11/17/30 10/16/27
f 4/4/29 3/3/31 12/18/32 11/17/30
f 3/3/31 1/1/25 9/15/28 12/18/32
s off
f 9/15/33 10/16/34 14/20/35 13/19/36
f 11/17/37 12/18/38 16/22/39 15/21/40
s 2
f 12/18/41 9/15/42 17/24/43 18/23/44
f 9/15/42 13/19/45 19/25/46 17/24/43
f 13/19/45 16/22/47 20/26/48 19/25/46
f 16/22/47 12/18/41 18/23/44 20/26/48
s 3
f 10/16/49 11/17/50 22/28/51 21/27/52
f 11/17/50 15/21/53 23/29/54 22/28/51
f 15/21/53 14/20/55 24/30/56 23/29/54
f 14/20/55 10/16/49 21/27/52 24/30/56
s off
f 17/24/57 19/25/58 24/30/59 21/27/60
f 19/25/61 20/26/62 23/29/63 24/30/64
f 20/26/65 18/23/66 22/28/67 23/29/68
