# This file uses centimeters as units for non-parametric coordinates.

mtllib SafeDoor.mtl
g default
v -0.884609 0.130929 2.137254
v 1.680307 0.130929 2.137254
v -0.884609 3.830929 2.137254
v 1.680307 3.830929 2.137254
v -0.884609 3.830929 1.948072
v 1.680307 3.830929 1.948072
v -0.884609 0.130929 1.948072
v 1.680307 0.130929 1.948072
v 1.433245 1.630072 2.137254
v 1.511514 1.630072 2.137254
v 1.511514 2.331785 2.137254
v 1.433245 2.331785 2.137254
v 1.433245 1.630072 2.407627
v 1.511514 1.630072 2.407627
v 1.511514 2.331785 2.407627
v 1.433245 2.331785 2.407627
v 1.433245 1.695938 2.138673
v 1.433245 2.265920 2.138673
v 1.433245 1.695938 2.302448
v 1.433245 2.265920 2.302448
v 1.511514 1.690594 2.141329
v 1.511514 2.271263 2.141329
v 1.511514 2.271263 2.327021
v 1.511514 1.690594 2.327021
vt 0.121582 0.725738
vt 0.036653 0.725738
vt 0.069692 0.750414
vt 0.121136 0.750414
vt 0.746712 0.964653
vt 0.746712 0.986314
vt 0.264394 0.965816
vt 0.744706 0.965816
vt 0.744706 0.985151
vt 0.264394 0.985151
vt 0.270655 0.985788
vt 0.742995 0.985788
vt 0.253288 0.986314
vt 0.253288 0.964652
vt 0.746712 0.986314
vt 0.746712 0.964653
vt 0.253288 0.964652
vt 0.253288 0.986314
vt 0.625000 0.000000
vt 0.375000 0.000000
vt 0.625000 0.250000
vt 0.375000 0.250000
vt 0.375000 0.000000
vt 0.375000 0.250000
vt 0.375000 0.000000
vt 0.375000 0.250000
vt 0.625000 0.250000
vt 0.625000 0.000000
vt 0.625000 0.250000
vt 0.625000 0.000000
vt 0.776712 0.996208
vt 0.996801 0.996208
vt 0.996801 0.681754
vt 0.776712 0.681754
vt 0.010024 0.007583
vt 0.230113 0.007583
vt 0.215629 0.163260
vt 0.208913 0.163260
vt 0.230113 0.391806
vt 0.215629 0.236129
vt 0.010024 0.391806
vt 0.208913 0.236129
vt 0.376968 0.002855
vt 0.618482 0.002855
vt 0.618482 0.260032
vt 0.376968 0.260032
vt 0.871296 0.269712
vt 0.988669 0.269712
vt 0.988669 0.006825
vt 0.871296 0.006825
vt 0.988669 0.269712
vt 0.871296 0.269712
vt 0.871296 0.006825
vt 0.988669 0.006825
vt 0.871296 0.268332
vt 0.871296 0.109092
vt 0.988669 0.085199
vt 0.988669 0.265750
vt 0.871296 0.109092
vt 0.871296 0.268332
vt 0.988669 0.265750
vt 0.988669 0.085199
vt 0.036653 0.988625
vt 0.069692 0.963949
vt 0.121582 0.988625
vt 0.121136 0.963949
vt 0.121582 0.988625
vt 0.036653 0.988625
vt 0.061973 0.965951
vt 0.120302 0.965951
vt 0.036653 0.725738
vt 0.061973 0.748412
vt 0.121582 0.725738
vt 0.120302 0.748412
vt 0.742995 0.960628
vt 0.270655 0.960628
vn 0.000000 0.000000 1.000000
vn 0.000000 0.000000 1.000000
vn 0.000000 0.000000 1.000000
vn 0.000000 0.000000 1.000000
vn 0.000000 1.000000 0.000000
vn 0.000000 1.000000 0.000000
vn 0.000000 1.000000 0.000000
vn 0.000000 1.000000 0.000000
vn 0.000000 0.000000 -1.000000
vn 0.000000 0.000000 -1.000000
vn 0.000000 0.000000 -1.000000
vn 0.000000 0.000000 -1.000000
vn 0.000000 -1.000000 0.000000
vn 0.000000 -1.000000 0.000000
vn 0.000000 -1.000000 0.000000
vn 0.000000 -1.000000 0.000000
vn 1.000000 0.000000 0.000000
vn 1.000000 0.000000 0.000000
vn 1.000000 0.000000 0.000000
vn 1.000000 0.000000 0.000000
vn -1.000000 0.000000 0.000000
vn -1.000000 0.000000 0.000000
vn -1.000000 0.000000 0.000000
vn -1.000000 0.000000 0.000000
vn 0.000000 0.000000 1.000000
vn 0.000000 0.000000 1.000000
vn 0.000000 0.000000 1.000000
vn 0.000000 0.000000 1.000000
vn 0.000000 0.000000 1.000000
vn 0.000000 0.000000 1.000000
vn 0.000000 0.000000 1.000000
vn 0.000000 0.000000 1.000000
vn 0.000000 0.000000 1.000000
vn 0.000000 0.000000 1.000000
vn 0.000000 0.000000 1.000000
vn 0.000000 0.000000 1.000000
vn 0.000000 0.000000 1.000000
vn 0.000000 0.000000 1.000000
vn 0.000000 0.000000 1.000000
vn 0.000000 0.000000 1.000000
vn 0.000000 -1.000000 0.000000
vn 0.000000 -1.000000 0.000000
vn 0.000000 -1.000000 0.000000
vn 0.000000 -1.000000 0.000000
vn 0.000000 1.000000 0.000000
vn 0.000000 1.000000 0.000000
vn 0.000000 1.000000 0.000000
vn 0.000000 1.000000 0.000000
vn -1.000000 0.000001 0.000000
vn -1.000000 -0.000001 0.000000
vn -1.000000 -0.000001 0.000000
vn -1.000000 0.000001 0.000000
vn -1.000000 -0.000001 0.000000
vn -1.000000 0.000000 0.000000
vn -1.000000 0.000000 0.000000
vn -1.000000 -0.000001 0.000000
vn -1.000000 0.000000 0.000000
vn -1.000000 0.000000 0.000000
vn -1.000000 0.000000 0.000000
vn -1.000000 0.000000 0.000000
vn -1.000000 0.000000 0.000000
vn -1.000000 0.000001 0.000000
vn -1.000000 0.000001 0.000000
vn -1.000000 0.000000 0.000000
vn 1.000000 0.000000 0.000000
vn 1.000000 0.000001 0.000000
vn 1.000000 0.000001 0.000000
vn 1.000000 0.000000 0.000000
vn 1.000000 0.000001 0.000000
vn 1.000000 0.000000 0.000000
vn 1.000000 0.000000 0.000000
vn 1.000000 0.000001 0.000000
vn 1.000000 0.000000 0.000000
vn 1.000000 0.000000 0.000000
vn 1.000000 0.000000 0.000000
vn 1.000000 0.000000 0.000000
vn 1.000000 0.000000 0.000000
vn 1.000000 0.000000 0.000000
vn 1.000000 0.000000 0.000000
vn 1.000000 0.000000 0.000000
vn 0.068112 0.997678 0.000000
vn 0.068112 0.997678 0.000000
vn 0.068112 0.997678 0.000000
vn 0.068112 0.997678 0.000000
vn 0.299544 0.000000 -0.954082
vn 0.299544 0.000000 -0.954082
vn 0.299544 0.000000 -0.954082
vn 0.299544 0.000000 -0.954082
vn 0.068106 -0.997678 0.000000
vn 0.068106 -0.997678 0.000000
vn 0.068106 -0.997678 0.000000
vn 0.068106 -0.997678 0.000000
s off
g pCube2
usemtl initialShadingGroup1
f 13/43/1 14/44/2 15/45/3 16/46/4
f 3/7/5 4/8/6 6/9/7 5/10/8
f 5/31/9 6/32/10 8/33/11 7/34/12
f 7/11/13 8/12/14 2/75/15 1/76/16
f 2/5/17 8/6/18 6/13/19 4/14/20
f 7/15/21 1/16/22 3/17/23 5/18/24
f 1/35/25 2/36/26 10/37/27 9/38/28
f 2/36/29 4/39/30 11/40/31 10/37/32
f 4/39/33 3/41/34 12/42/35 11/40/36
f 3/41/37 1/35/38 9/38/39 12/42/40
f 9/47/41 10/48/42 14/49/43 13/50/44
f 11/51/45 12/52/46 16/53/47 15/54/48
f 12/22/49 9/20/50 17/23/51 18/24/52
f 9/1/53 13/2/54 19/3/55 17/4/56
f 13/2/57 16/63/58 20/64/59 19/3/60
f 16/63/61 12/65/62 18/66/63 20/64/64
f 10/19/65 11/21/66 22/27/67 21/28/68
f 11/67/69 15/68/70 23/69/71 22/70/72
f 15/68/73 14/71/74 24/72/75 23/69/76
f 14/71/77 10/73/78 21/74/79 24/72/80
f 17/55/81 19/56/82 24/57/83 21/58/84
f 19/25/85 20/26/86 23/29/87 24/30/88
f 20/59/89 18/60/90 22/61/91 23/62/92
