# This file uses centimeters as units for non-parametric coordinates.

mtllib SafeBody.mtl
g default
v -1.089479 -0.013440 2.059567
v 1.910521 -0.013440 2.059567
v -1.089479 3.986559 2.059567
v 1.910521 3.986559 2.059567
v -1.089479 3.986559 -0.940433
v 1.910521 3.986559 -0.940433
v -1.089479 -0.013440 -0.940433
v 1.910521 -0.013440 -0.940433
v -0.839479 0.319893 2.059567
v 1.660521 0.319893 2.059567
v 1.660521 3.653226 2.059567
v -0.839479 3.653226 2.059567
v -0.839479 0.319893 -0.554828
v 1.660521 0.319893 -0.554828
v 1.660521 3.653226 -0.554828
v -0.839479 3.653226 -0.554828
vt 0.374479 0.646111
vt 0.666472 0.646111
vt 0.666472 0.972700
vt 0.374479 0.972700
vt 0.035642 0.680995
vt 0.268195 0.680995
vt 0.268195 0.983316
vt 0.035642 0.983316
vt 0.707410 0.006067
vt 0.993302 0.006067
vt 0.993302 0.320521
vt 0.707410 0.320521
vt 0.993302 0.006067
vt 0.707410 0.006067
vt 0.666472 0.646111
vt 0.374479 0.646111
vt 0.374479 0.972700
vt 0.666472 0.972700
vt 0.030143 0.032271
vt 0.287345 0.032271
vt 0.287345 0.385318
vt 0.030143 0.385318
vt 0.004423 -0.003033
vt 0.313065 -0.003033
vt 0.287345 0.032271
vt 0.030143 0.032271
vt 0.313065 0.420623
vt 0.287345 0.385318
vt 0.004423 0.420623
vt 0.030143 0.385318
vt 0.342038 0.004550
vt 0.342038 0.385739
vt 0.612462 0.385739
vt 0.612462 0.004550
vt 0.342038 0.385739
vt 0.342038 0.004550
vt 0.612462 0.004550
vt 0.612462 0.385739
vt 0.707410 0.320521
vt 0.993302 0.320521
vn 0.000000 0.000000 1.000000
vn 0.000000 0.000000 1.000000
vn 0.000000 0.000000 1.000000
vn 0.000000 0.000000 1.000000
vn 0.000000 1.000000 0.000000
vn 0.000000 1.000000 0.000000
vn 0.000000 1.000000 0.000000
vn 0.000000 1.000000 0.000000
vn 1.000000 0.000000 0.000000
vn 1.000000 0.000000 0.000000
vn 1.000000 0.000000 0.000000
vn 1.000000 0.000000 0.000000
vn -1.000000 0.000000 0.000000
vn -1.000000 0.000000 0.000000
vn -1.000000 0.000000 0.000000
vn -1.000000 0.000000 0.000000
vn 0.000000 0.000000 1.000000
vn 0.000000 0.000000 1.000000
vn 0.000000 0.000000 1.000000
vn 0.000000 0.000000 1.000000
vn 0.000000 0.000000 1.000000
vn 0.000000 0.000000 1.000000
vn 0.000000 0.000000 1.000000
vn 0.000000 0.000000 1.000000
vn 0.000000 0.000000 1.000000
vn 0.000000 0.000000 1.000000
vn 0.000000 0.000000 1.000000
vn 0.000000 0.000000 1.000000
vn 0.000000 0.000000 1.000000
vn 0.000000 0.000000 1.000000
vn 0.000000 0.000000 1.000000
vn 0.000000 0.000000 1.000000
vn 0.000000 1.000000 0.000000
vn 0.000000 1.000000 0.000000
vn 0.000000 1.000000 0.000000
vn 0.000000 1.000000 0.000000
vn -1.000000 0.000000 0.000000
vn -1.000000 0.000000 0.000000
vn -1.000000 0.000000 0.000000
vn -1.000000 0.000000 0.000000
vn 0.000000 -1.000000 0.000000
vn 0.000000 -1.000000 0.000000
vn 0.000000 -1.000000 0.000000
vn 0.000000 -1.000000 0.000000
vn 1.000000 0.000000 0.000000
vn 1.000000 0.000000 0.000000
vn 1.000000 0.000000 0.000000
vn 1.000000 0.000000 0.000000
s off
g pCube1
usemtl initialShadingGroup1
f 13/19/1 14/20/2 15/21/3 16/22/4
f 3/5/5 4/6/6 6/7/7 5/8/8
f 2/9/9 8/10/10 6/11/11 4/12/12
f 7/13/13 1/14/14 3/39/15 5/40/16
f 1/23/17 2/24/18 10/25/19 9/26/20
f 2/24/21 4/27/22 11/28/23 10/25/24
f 4/27/25 3/29/26 12/30/27 11/28/28
f 3/29/29 1/23/30 9/26/31 12/30/32
f 9/1/33 10/2/34 14/3/35 13/4/36
f 10/31/37 11/32/38 15/33/39 14/34/40
f 11/15/41 12/16/42 16/17/43 15/18/44
f 12/35/45 9/36/46 13/37/47 16/38/48
