# This file uses centimeters as units for non-parametric coordinates.

mtllib RoomWallNorth.mtl
g default
v 53.340000 243.839996 -205.740005
v 53.340000 243.839996 -220.979996
v 53.340019 0.000000 -220.979996
v 53.339996 0.000000 -205.740005
v -53.339996 0.000000 -205.740005
v -53.340012 0.000000 -220.979996
v -53.340000 243.839996 -220.979996
v -53.340000 243.839996 -205.740005
v 226.236374 0.000000 -220.979996
v 226.236374 0.000000 -205.740005
v -215.723618 0.000000 -220.979996
v -215.723618 0.000000 -205.740005
v -215.723618 365.760010 -205.740005
v -215.723618 365.760010 -220.979996
v 226.236374 365.760010 -220.979996
v 226.236374 365.760010 -205.740005
vt 0.687500 0.250000
vt 0.812500 0.250000
vt 0.812500 0.000000
vt 0.687500 0.000000
vt 0.312500 0.000000
vt 0.187500 0.000000
vt 0.187500 0.250000
vt 0.312500 0.250000
vt 0.375000 0.312500
vt 0.375000 0.437500
vt 0.625000 0.437500
vt 0.625000 0.312500
vt 0.527199 1.000000
vt 0.527199 0.750000
vt 0.625000 0.750000
vt 0.625000 1.000000
vt 0.125000 0.000000
vt 0.375000 0.000000
vt 0.375000 0.250000
vt 0.125000 0.250000
vt 0.625000 0.000000
vt 0.875000 0.000000
vt 0.875000 0.250000
vt 0.625000 0.250000
vt 0.466854 0.750000
vt 0.466854 1.000000
vt 0.375000 1.000000
vt 0.375000 0.750000
vt 0.466854 0.583333
vt 0.466854 0.750000
vt 0.375000 0.500000
vt 0.625000 0.500000
vt 0.527199 0.750000
vt 0.527199 0.583333
vt 0.608796 0.637931
vt 0.608796 0.086207
vt 1.000000 0.086207
vt 1.000000 0.913793
vt 0.000000 0.913793
vt 0.000000 0.086207
vt 0.367417 0.086207
vt 0.367417 0.637931
vn -1.000000 0.000000 -0.000001
vn -1.000000 0.000000 -0.000001
vn -1.000000 0.000000 -0.000001
vn -1.000000 0.000000 -0.000001
vn 1.000000 0.000000 -0.000001
vn 1.000000 0.000000 -0.000001
vn 1.000000 0.000000 -0.000001
vn 1.000000 0.000000 -0.000001
vn 0.000000 -1.000000 0.000000
vn 0.000000 -1.000000 0.000000
vn 0.000000 -1.000000 0.000000
vn 0.000000 -1.000000 0.000000
vn 0.000000 -1.000000 0.000000
vn 0.000000 -1.000000 0.000000
vn 0.000000 -1.000000 0.000000
vn 0.000000 -1.000000 0.000000
vn -1.000000 0.000000 0.000000
vn -1.000000 0.000000 0.000000
vn -1.000000 0.000000 0.000000
vn -1.000000 0.000000 0.000000
vn 1.000000 0.000000 0.000000
vn 1.000000 0.000000 0.000000
vn 1.000000 0.000000 0.000000
vn 1.000000 0.000000 0.000000
vn 0.000000 -1.000000 0.000000
vn 0.000000 -1.000000 0.000000
vn 0.000000 -1.000000 0.000000
vn 0.000000 -1.000000 0.000000
vn 0.000000 0.000000 -1.000000
vn 0.000000 0.000000 -1.000000
vn 0.000000 0.000000 -1.000000
vn 0.000000 0.000000 -1.000000
vn 0.000000 0.000000 -1.000000
vn 0.000000 0.000000 -1.000000
vn 0.000000 0.000000 -1.000000
vn 0.000000 0.000000 -1.000000
vn 0.000000 1.000000 0.000000
vn 0.000000 1.000000 0.000000
vn 0.000000 1.000000 0.000000
vn 0.000000 1.000000 0.000000
vn 0.000000 0.000000 1.000000
vn 0.000000 0.000000 1.000000
vn 0.000000 0.000000 1.000000
vn 0.000000 0.000000 1.000000
vn 0.000000 0.000000 1.000000
vn 0.000000 0.000000 1.000000
vn 0.000000 0.000000 1.000000
vn 0.000000 0.000000 1.000000
s off
g polySurface1
usemtl initialShadingGroup1
f 1/1/1 2/2/2 3/3/3 4/4/4
f 5/5/5 6/6/6 7/7/7 8/8/8
f 8/9/9 7/10/10 2/11/11 1/12/12
f 4/13/13 3/14/14 9/15/15 10/16/16
f 11/17/17 12/18/18 13/19/19 14/20/20
f 10/21/21 9/22/22 15/23/23 16/24/24
f 6/25/25 5/26/26 12/27/27 11/28/28
f 7/29/29 6/30/30 11/28/31 14/31/32 15/32/33 9/15/34 3/33/35 2/34/36
f 13/19/37 16/24/38 15/32/39 14/31/40
f 1/35/41 4/36/42 10/37/43 16/38/44 13/39/45 12/40/46 5/41/47 8/42/48
