# This file uses feet as units for non-parametric coordinates.

mtllib RoomCeiling.mtl
g default
v -212.034989 365.760010 213.360001
v 214.685012 365.760010 213.360001
v -212.034989 365.760010 -213.360001
v 214.685012 365.760010 -213.360001
vt 0.000000 0.000000
vt 1.000000 0.000000
vt 0.000000 1.000000
vt 1.000000 1.000000
vn 0.000000 1.000000 0.000000
vn 0.000000 1.000000 0.000000
vn 0.000000 1.000000 0.000000
vn 0.000000 1.000000 0.000000
s off
g pPlane1
usemtl initialShadingGroup
f 1/1/1 2/2/2 4/4/3 3/3/4
