# This file uses feet as units for non-parametric coordinates.

mtllib RoomWallSouth.mtl
g default
v -49.054993 224.556076 220.979996
v -49.054993 224.556076 205.740005
v -49.054993 133.116074 205.740005
v -49.054993 133.116074 220.979996
v -170.974991 133.116074 205.740005
v -170.974991 133.116074 220.979996
v -170.974991 224.556076 205.740005
v -170.974991 224.556076 220.979996
v -220.980011 0.000000 220.979996
v 220.980011 0.000000 220.979996
v 220.980011 365.760010 220.979996
v -220.980011 365.760010 220.979996
v 166.023926 224.556076 220.979996
v 166.023926 133.116074 220.979996
v 44.103905 133.116074 220.979996
v 44.103905 224.556076 220.979996
v 220.980011 365.760010 205.740005
v -220.980011 365.760010 205.740005
v 220.980011 0.000000 205.740005
v -220.980011 0.000000 205.740005
v 166.023926 133.116074 205.740005
v 166.023926 224.556076 205.740005
v 44.103905 224.556076 205.740005
v 44.103905 133.116074 205.740005
vt 0.375000 0.000000
vt 0.625000 0.000000
vt 0.375000 0.250000
vt 0.625000 0.250000
vt 0.375000 0.500000
vt 0.625000 0.500000
vt 0.375000 0.750000
vt 0.625000 0.750000
vt 0.375000 1.000000
vt 0.625000 1.000000
vt 0.875000 0.000000
vt 0.875000 0.250000
vt 0.125000 0.000000
vt 0.125000 0.250000
vt 0.625000 0.812500
vt 0.625000 0.937500
vt 0.375000 0.937500
vt 0.375000 0.812500
vt 0.812500 0.250000
vt 0.687500 0.250000
vt 0.687500 0.000000
vt 0.812500 0.000000
vt 0.375000 0.437500
vt 0.375000 0.312500
vt 0.625000 0.312500
vt 0.625000 0.437500
vt 0.187500 0.000000
vt 0.312500 0.000000
vt 0.312500 0.250000
vt 0.187500 0.250000
vt 0.524948 0.659014
vt 0.524948 0.596514
vt 0.593913 0.596514
vt 0.593913 0.659014
vt 0.524948 0.153486
vt 0.524948 0.090986
vt 0.593913 0.090986
vt 0.593913 0.153486
vt 0.687500 0.000000
vt 0.812500 0.000000
vt 0.812500 0.250000
vt 0.687500 0.250000
vt 0.375000 0.937500
vt 0.375000 0.812500
vt 0.625000 0.812500
vt 0.625000 0.937500
vt 0.312500 0.250000
vt 0.187500 0.250000
vt 0.187500 0.000000
vt 0.312500 0.000000
vt 0.625000 0.312500
vt 0.625000 0.437500
vt 0.375000 0.437500
vt 0.375000 0.312500
vt 0.472251 0.153486
vt 0.403286 0.153486
vt 0.403286 0.090986
vt 0.472251 0.090986
vt 0.472251 0.659014
vt 0.403286 0.659014
vt 0.403286 0.596514
vt 0.472251 0.596514
vn -1.000000 0.000000 0.000000
vn -1.000000 0.000000 0.000000
vn -1.000000 0.000000 0.000000
vn -1.000000 0.000000 0.000000
vn 0.000000 1.000000 0.000000
vn 0.000000 1.000000 0.000000
vn 0.000000 1.000000 0.000000
vn 0.000000 1.000000 0.000000
vn 1.000000 0.000000 0.000000
vn 1.000000 0.000000 0.000000
vn 1.000000 0.000000 0.000000
vn 1.000000 0.000000 0.000000
vn 0.000000 -1.000000 0.000000
vn 0.000000 -1.000000 0.000000
vn 0.000000 -1.000000 0.000000
vn 0.000000 -1.000000 0.000000
vn 0.000000 0.000000 1.000000
vn 0.000000 0.000000 1.000000
vn 0.000000 0.000000 1.000000
vn 0.000000 0.000000 1.000000
vn 0.000000 0.000000 1.000000
vn 0.000000 0.000000 1.000000
vn 0.000000 0.000000 1.000000
vn 0.000000 0.000000 1.000000
vn 0.000000 0.000000 1.000000
vn 0.000000 0.000000 1.000000
vn 0.000000 0.000000 1.000000
vn 0.000000 0.000000 1.000000
vn 0.000000 1.000000 0.000000
vn 0.000000 1.000000 0.000000
vn 0.000000 1.000000 0.000000
vn 0.000000 1.000000 0.000000
vn 0.000000 0.000000 -1.000000
vn 0.000000 0.000000 -1.000000
vn 0.000000 0.000000 -1.000000
vn 0.000000 0.000000 -1.000000
vn 0.000000 0.000000 -1.000000
vn 0.000000 0.000000 -1.000000
vn 0.000000 0.000000 -1.000000
vn 0.000000 0.000000 -1.000000
vn 0.000000 0.000000 -1.000000
vn 0.000000 0.000000 -1.000000
vn 0.000000 0.000000 -1.000000
vn 0.000000 0.000000 -1.000000
vn 0.000000 -1.000000 0.000000
vn 0.000000 -1.000000 0.000000
vn 0.000000 -1.000000 0.000000
vn 0.000000 -1.000000 0.000000
vn 1.000000 0.000000 0.000000
vn 1.000000 0.000000 0.000000
vn 1.000000 0.000000 0.000000
vn 1.000000 0.000000 0.000000
vn -1.000000 0.000000 0.000000
vn -1.000000 0.000000 0.000000
vn -1.000000 0.000000 0.000000
vn -1.000000 0.000000 0.000000
vn 1.000000 0.000000 0.000000
vn 1.000000 0.000000 0.000000
vn 1.000000 0.000000 0.000000
vn 1.000000 0.000000 0.000000
vn 0.000000 -1.000000 0.000000
vn 0.000000 -1.000000 0.000000
vn 0.000000 -1.000000 0.000000
vn 0.000000 -1.000000 0.000000
vn -1.000000 0.000000 0.000000
vn -1.000000 0.000000 0.000000
vn -1.000000 0.000000 0.000000
vn -1.000000 0.000000 0.000000
vn 0.000000 1.000000 0.000000
vn 0.000000 1.000000 0.000000
vn 0.000000 1.000000 0.000000
vn 0.000000 1.000000 0.000000
s off
g polySurface3
usemtl initialShadingGroup
f 1/42/1 2/41/2 3/40/3 4/39/4
f 4/46/5 3/45/6 5/44/7 6/43/8
f 6/50/9 5/49/10 7/48/11 8/47/12
f 8/54/13 7/53/14 2/52/15 1/51/16
f 9/1/17 10/2/18 11/4/19 12/3/20 4/58/21 6/57/22 8/56/23 1/55/24 13/38/25 14/37/26 15/36/27 16/35/28
f 12/3/29 11/4/30 17/6/31 18/5/32
f 18/5/33 17/6/34 19/8/35 20/7/36 2/62/37 7/61/38 5/60/39 3/59/40 21/34/41 22/33/42 23/32/43 24/31/44
f 20/7/45 19/8/46 10/10/47 9/9/48
f 10/2/49 19/11/50 17/12/51 11/4/52
f 20/13/53 9/1/54 12/3/55 18/14/56
f 23/30/57 16/29/58 15/28/59 24/27/60
f 22/26/61 13/25/62 16/24/63 23/23/64
f 21/22/65 14/21/66 13/20/67 22/19/68
f 24/18/69 15/17/70 14/16/71 21/15/72
