# Blender v2.65 (sub 0) OBJ File: ''
# www.blender.org
o polySurface1
v 53.340000 243.840027 -205.739960
v 53.340000 243.840027 -220.979950
v 53.340019 0.000036 -220.979996
v 53.339996 0.000034 -205.740005
v -53.339996 0.000034 -205.740005
v -53.340012 0.000036 -220.979996
v -53.340000 243.840027 -220.979950
v -53.340000 243.840027 -205.739960
v 226.236374 0.000036 -220.979996
v 226.236374 0.000034 -205.740005
v -215.723618 0.000036 -220.979996
v -215.723618 0.000034 -205.740005
v -215.723618 365.760040 -205.739944
v -215.723618 365.760040 -220.979935
v 226.236374 365.760040 -220.979935
v 226.236374 365.760040 -205.739944
vt 0.687500 0.250000
vt 0.812500 0.250000
vt 0.812500 0.000000
vt 0.687500 0.000000
vt 0.312500 0.000000
vt 0.187500 0.000000
vt 0.187500 0.250000
vt 0.312500 0.250000
vt 0.625000 0.437500
vt 0.625000 0.312500
vt 0.375000 0.312500
vt 0.375000 0.437500
vt 0.527199 1.000000
vt 0.527199 0.750000
vt 0.625000 0.750000
vt 0.625000 1.000000
vt 0.125000 0.000000
vt 0.375000 0.000000
vt 0.375000 0.250000
vt 0.125000 0.250000
vt 0.625000 0.000000
vt 0.875000 0.000000
vt 0.875000 0.250000
vt 0.625000 0.250000
vt 0.466854 0.750000
vt 0.466854 1.000000
vt 0.375000 1.000000
vt 0.375000 0.750000
vt 0.625000 0.500000
vt 0.375000 0.500000
vt 0.466854 0.166667
vt 0.527199 0.166667
vt 0.466854 0.000000
vt 0.527199 0.000000
vt 0.466854 0.583333
vt 0.527199 0.583333
vn -0.301492 -0.301492 0.904508
vn -0.301492 -0.301492 -0.904508
vn -0.577349 -0.577349 -0.577349
vn -0.577349 -0.577349 0.577349
vn 0.577349 -0.577349 0.577349
vn 0.577349 -0.577349 -0.577349
vn 0.301492 -0.301492 -0.904508
vn 0.301492 -0.301492 0.904508
vn -0.577349 0.577349 0.577349
vn -0.577349 0.577349 -0.577349
vn 0.577349 0.577349 -0.577349
vn 0.577349 0.577349 0.577349
s 1
f 1/1/1 2/2/2 3/3/3 4/4/4
f 5/5/5 6/6/6 7/7/7 8/8/8
f 2/9/2 1/10/1 8/11/8 7/12/7
f 4/13/4 3/14/3 9/15/6 10/16/5
f 11/17/3 12/18/4 13/19/9 14/20/10
f 10/21/5 9/22/6 15/23/11 16/24/12
f 6/25/6 5/26/5 12/27/4 11/28/3
f 13/19/9 16/24/12 15/29/11 14/30/10
f 8/31/8 13/19/9 12/18/4
f 16/24/12 13/19/9 8/31/8
f 1/32/1 16/24/12 8/31/8
f 16/24/12 1/32/1 10/21/5
f 5/33/5 8/31/8 12/18/4
f 10/21/5 1/32/1 4/34/4
f 11/28/3 14/30/10 7/35/7
f 7/35/7 14/30/10 15/29/11
f 7/35/7 15/29/11 2/36/2
f 2/36/2 15/29/11 9/15/6
f 11/28/3 7/35/7 6/25/6
f 3/14/3 2/36/2 9/15/6
