# Blender v2.65 (sub 0) OBJ File: ''
# www.blender.org
o RoomWestWall
v -220.979996 -0.000036 220.979996
v -205.740005 -0.000036 220.979996
v -205.740005 365.759979 220.980057
v -220.979996 365.759979 220.980057
v -205.740005 365.760040 -220.979935
v -220.979996 365.760040 -220.979935
v -205.740005 0.000036 -220.979996
v -220.979996 0.000036 -220.979996
vt 0.375000 0.000000
vt 0.625000 0.000000
vt 0.625000 0.250000
vt 0.375000 0.250000
vt 0.625000 0.500000
vt 0.375000 0.500000
vt 0.625000 0.750000
vt 0.375000 0.750000
vt 0.625000 1.000000
vt 0.375000 1.000000
vt 0.875000 0.000000
vt 0.875000 0.250000
vt 0.125000 0.000000
vt 0.125000 0.250000
vn -0.577349 -0.577349 0.577349
vn 0.577349 -0.577349 0.577349
vn 0.577349 0.577349 0.577349
vn -0.577349 0.577349 0.577349
vn 0.577349 0.577349 -0.577349
vn -0.577349 0.577349 -0.577349
vn 0.577349 -0.577349 -0.577349
vn -0.577349 -0.577349 -0.577349
s 1
f 1/1/1 2/2/2 3/3/3 4/4/4
f 4/4/4 3/3/3 5/5/5 6/6/6
f 6/6/6 5/5/5 7/7/7 8/8/8
f 2/9/2 1/10/1 8/8/8 7/7/7
f 2/2/2 7/11/7 5/12/5 3/3/3
f 8/13/8 1/1/1 4/4/4 6/14/6
