# This file uses feet as units for non-parametric coordinates.

mtllib WindowWest.mtl
g default
v -63.573988 224.860743 219.150529
v -63.573988 226.113031 236.542012
v -63.573988 226.113031 219.150529
v -165.547592 226.113031 236.542012
v -165.547592 226.113031 219.150529
v -165.547592 224.860743 219.150529
vt 0.625000 0.000000
vt 0.375000 0.250000
vt 0.625000 0.250000
vt 0.375000 0.500000
vt 0.625000 0.500000
vt 0.875000 0.000000
vt 0.875000 0.250000
vn 0.000000 1.000000 0.000000
vn 0.000000 1.000000 0.000000
vn 0.000000 1.000000 0.000000
vn 0.000000 1.000000 0.000000
vn 0.000000 0.000000 -1.000000
vn 0.000000 0.000000 -1.000000
vn 0.000000 0.000000 -1.000000
vn 0.000000 0.000000 -1.000000
s off
g pCube29 group1
usemtl initialShadingGroup
f 2/2/1 3/3/2 5/5/3 4/4/4
f 1/1/5 6/6/6 5/7/7 3/3/8
g default
v -165.891181 226.113022 236.492340
v -162.843181 226.113022 236.492340
v -174.018224 226.113017 220.979997
v -172.877736 226.113017 218.600610
v -174.401733 224.556076 220.979997
v -165.547592 226.113018 236.542010
vt 0.375000 0.250000
vt 0.625000 0.250000
vt 0.375000 0.500000
vt 0.625000 0.500000
vt 0.375000 0.750000
vt 0.625000 0.750000
vn -0.000000 1.000000 -0.000000
vn -0.000000 1.000000 -0.000000
vn -0.000000 1.000000 -0.000000
vn -0.000000 1.000000 -0.000000
vn 0.467532 -0.846553 -0.254484
vn 0.467532 -0.846553 -0.254484
vn 0.467532 -0.846553 -0.254484
vn 0.467532 -0.846553 -0.254484
s off
g group1 pCube30
usemtl initialShadingGroup
f 7/8/9 8/9/10 10/11/11 9/10/12
f 9/10/13 10/11/14 12/13/15 11/12/16
g default
v -160.351462 226.145985 218.853080
v -165.891181 226.113031 234.447563
v -172.561476 226.113029 218.872978
v -160.376242 224.680785 218.860191
v -172.586256 224.781463 218.872978
vt 0.625000 0.250000
vt 0.375000 0.500000
vt 0.625000 0.500000
vt 0.000000 0.000000
vt 1.000000 0.000000
vt 1.000000 1.000000
vt 0.000000 1.000000
vn -0.002697 0.999996 0.001155
vn -0.002697 0.999996 0.001155
vn -0.002697 0.999996 0.001155
vn -0.001345 -0.002519 -0.999996
vn -0.001345 -0.002519 -0.999996
vn -0.001345 -0.002519 -0.999996
vn -0.001345 -0.002519 -0.999996
s off
g group1 pCube31
usemtl initialShadingGroup
f 14/15/17 13/14/18 15/16/19
f 15/17/20 13/18/21 16/19/22 17/20/23
g default
v -62.670690 223.065022 236.219973
v -65.718690 226.113022 236.219973
v -62.670690 226.113022 236.219973
v -52.355902 226.113017 218.872977
v -49.307902 226.113017 218.872977
v -52.355902 223.065017 218.872977
v -49.307902 223.065017 218.872977
vt 0.625000 0.000000
vt 0.375000 0.250000
vt 0.625000 0.250000
vt 0.375000 0.500000
vt 0.625000 0.500000
vt 0.375000 0.750000
vt 0.625000 0.750000
vt 0.875000 0.000000
vt 0.875000 0.250000
vn 0.000000 1.000000 -0.000000
vn 0.000000 1.000000 -0.000000
vn 0.000000 1.000000 -0.000000
vn 0.000000 1.000000 -0.000000
vn 0.000000 0.000000 -1.000000
vn 0.000000 0.000000 -1.000000
vn 0.000000 0.000000 -1.000000
vn 0.000000 0.000000 -1.000000
vn 0.792206 0.000000 0.610254
vn 0.792206 0.000000 0.610254
vn 0.792206 0.000000 0.610254
vn 0.792206 0.000000 0.610254
s off
g group1 pCube32
usemtl initialShadingGroup
f 19/22/24 20/23/25 22/25/26 21/24/27
f 21/24/28 22/25/29 24/27/30 23/26/31
f 18/21/32 24/28/33 22/29/34 20/23/35
g default
v -51.363980 225.979381 219.130634
v -63.573988 226.113017 234.725114
v -63.573995 226.113015 219.150529
v -51.388761 224.719878 219.137744
v -63.598775 224.820555 219.150529
vt 0.625000 0.250000
vt 0.375000 0.500000
vt 0.625000 0.500000
vt 0.000000 0.000000
vt 1.000000 0.000000
vt 1.000000 1.000000
vt 0.000000 1.000000
vn 0.010944 0.999940 -0.000000
vn 0.010944 0.999940 -0.000000
vn 0.010944 0.999940 -0.000000
vn -0.001365 -0.002760 -0.999995
vn -0.001365 -0.002760 -0.999995
vn -0.001365 -0.002760 -0.999995
vn -0.001365 -0.002760 -0.999995
s off
g group1 pCube33
usemtl initialShadingGroup
f 26/31/36 25/30/37 27/32/38
f 27/33/39 25/34/40 28/35/41 29/36/42
g default
v -165.891181 134.640065 236.492340
v -162.843181 134.640065 236.492340
v -174.018224 134.640059 221.047887
v -172.877736 134.640059 218.600610
v -174.018224 131.592059 221.320254
v -170.970224 131.592059 221.320254
vt 0.375000 0.250000
vt 0.625000 0.250000
vt 0.375000 0.500000
vt 0.625000 0.500000
vt 0.375000 0.750000
vt 0.625000 0.750000
vn -0.000000 1.000000 -0.000000
vn -0.000000 1.000000 -0.000000
vn -0.000000 1.000000 -0.000000
vn -0.000000 1.000000 -0.000000
vn -0.436085 -0.502778 -0.746354
vn -0.436085 -0.502778 -0.746354
vn -0.436085 -0.502778 -0.746354
vn -0.436085 -0.502778 -0.746354
s off
g pCube22
usemtl initialShadingGroup
f 30/37/43 31/38/44 33/40/45 32/39/46
f 32/39/47 33/40/48 35/42/49 34/41/50
g default
v -62.670690 131.592064 236.219973
v -65.718690 134.640065 236.219973
v -62.670690 134.640065 236.219973
v -52.355902 134.640059 218.872977
v -49.307902 134.640059 218.872977
v -52.355902 131.592059 218.872977
v -49.307902 131.592059 218.872977
vt 0.625000 0.000000
vt 0.375000 0.250000
vt 0.625000 0.250000
vt 0.375000 0.500000
vt 0.625000 0.500000
vt 0.375000 0.750000
vt 0.625000 0.750000
vt 0.875000 0.000000
vt 0.875000 0.250000
vn 0.000000 1.000000 -0.000000
vn 0.000000 1.000000 -0.000000
vn 0.000000 1.000000 -0.000000
vn 0.000000 1.000000 -0.000000
vn 0.000000 0.000000 -1.000000
vn 0.000000 0.000000 -1.000000
vn 0.000000 0.000000 -1.000000
vn 0.000000 0.000000 -1.000000
vn 0.792206 0.000000 0.610254
vn 0.792206 0.000000 0.610254
vn 0.792206 0.000000 0.610254
vn 0.792206 0.000000 0.610254
s off
g pCube23
usemtl initialShadingGroup
f 37/44/51 38/45/52 40/47/53 39/46/54
f 39/46/55 40/47/56 42/49/57 41/48/58
f 36/43/59 42/50/60 40/51/61 38/45/62
g default
v -63.573988 133.420726 219.150529
v -63.573988 134.673015 236.542012
v -63.573988 134.673015 219.150529
v -165.547592 134.673015 236.542012
v -165.547592 134.673015 219.150529
v -165.547592 133.420726 219.150529
vt 0.625000 0.000000
vt 0.375000 0.250000
vt 0.625000 0.250000
vt 0.375000 0.500000
vt 0.625000 0.500000
vt 0.875000 0.000000
vt 0.875000 0.250000
vn 0.000000 1.000000 0.000000
vn 0.000000 1.000000 0.000000
vn 0.000000 1.000000 0.000000
vn 0.000000 1.000000 0.000000
vn 0.000000 0.000000 -1.000000
vn 0.000000 0.000000 -1.000000
vn 0.000000 0.000000 -1.000000
vn 0.000000 0.000000 -1.000000
s off
g pCube24
usemtl initialShadingGroup
f 44/53/63 45/54/64 47/56/65 46/55/66
f 43/52/67 48/57/68 47/58/69 45/54/70
g default
v -51.363980 134.539380 219.130634
v -63.573988 134.673017 234.725114
v -63.573995 134.673015 219.150529
v -51.388761 133.279877 219.137744
v -63.598775 133.380555 219.150529
vt 0.625000 0.250000
vt 0.375000 0.500000
vt 0.625000 0.500000
vt 0.000000 0.000000
vt 1.000000 0.000000
vt 1.000000 1.000000
vt 0.000000 1.000000
vn 0.010944 0.999940 -0.000000
vn 0.010944 0.999940 -0.000000
vn 0.010944 0.999940 -0.000000
vn -0.001365 -0.002760 -0.999995
vn -0.001365 -0.002760 -0.999995
vn -0.001365 -0.002760 -0.999995
vn -0.001365 -0.002760 -0.999995
s off
g pCube25
usemtl initialShadingGroup
f 50/60/71 49/59/72 51/61/73
f 51/62/74 49/63/75 52/64/76 53/65/77
g default
v -160.351462 134.673015 218.853080
v -165.891181 134.640062 234.447563
v -172.561476 134.640059 218.872978
v -160.376242 133.207816 218.860191
v -172.586256 133.308493 218.872978
vt 0.625000 0.250000
vt 0.375000 0.500000
vt 0.625000 0.500000
vt 0.000000 0.000000
vt 1.000000 0.000000
vt 1.000000 1.000000
vt 0.000000 1.000000
vn -0.002697 0.999996 0.001155
vn -0.002697 0.999996 0.001155
vn -0.002697 0.999996 0.001155
vn -0.001345 -0.002519 -0.999996
vn -0.001345 -0.002519 -0.999996
vn -0.001345 -0.002519 -0.999996
vn -0.001345 -0.002519 -0.999996
s off
g pCube26
usemtl initialShadingGroup
f 55/67/78 54/66/79 56/68/80
f 56/69/81 54/70/82 57/71/83 58/72/84
g default
v -165.547592 134.673015 236.542012
v -162.499592 134.673015 236.542012
v -165.547592 226.113017 236.542012
v -162.499592 226.113017 236.542012
v -165.547592 226.113017 233.494012
v -162.499592 226.113017 233.494012
v -165.547592 134.673015 233.494012
v -162.499592 134.673015 233.494012
vt 0.375000 0.000000
vt 0.625000 0.000000
vt 0.375000 0.250000
vt 0.625000 0.250000
vt 0.375000 0.500000
vt 0.625000 0.500000
vt 0.375000 0.750000
vt 0.625000 0.750000
vt 0.375000 1.000000
vt 0.625000 1.000000
vt 0.875000 0.000000
vt 0.875000 0.250000
vt 0.125000 0.000000
vt 0.125000 0.250000
vn 0.000000 0.000000 1.000000
vn 0.000000 0.000000 1.000000
vn 0.000000 0.000000 1.000000
vn 0.000000 0.000000 1.000000
vn 0.000000 1.000000 0.000000
vn 0.000000 1.000000 0.000000
vn 0.000000 1.000000 0.000000
vn 0.000000 1.000000 0.000000
vn 0.000000 0.000000 -1.000000
vn 0.000000 0.000000 -1.000000
vn 0.000000 0.000000 -1.000000
vn 0.000000 0.000000 -1.000000
vn 0.000000 -1.000000 0.000000
vn 0.000000 -1.000000 0.000000
vn 0.000000 -1.000000 0.000000
vn 0.000000 -1.000000 0.000000
vn 1.000000 0.000000 0.000000
vn 1.000000 0.000000 0.000000
vn 1.000000 0.000000 0.000000
vn 1.000000 0.000000 0.000000
vn -1.000000 0.000000 0.000000
vn -1.000000 0.000000 0.000000
vn -1.000000 0.000000 0.000000
vn -1.000000 0.000000 0.000000
s off
g pCube27
usemtl initialShadingGroup
f 59/73/85 60/74/86 62/76/87 61/75/88
f 61/75/89 62/76/90 64/78/91 63/77/92
f 63/77/93 64/78/94 66/80/95 65/79/96
f 65/79/97 66/80/98 60/82/99 59/81/100
f 60/74/101 66/83/102 64/84/103 62/76/104
f 65/85/105 59/73/106 61/75/107 63/86/108
g default
v -66.621988 134.673015 236.542012
v -63.573988 134.673015 236.542012
v -66.621988 226.113017 236.542012
v -63.573988 226.113017 236.542012
v -66.621988 226.113017 233.494012
v -63.573988 226.113017 233.494012
v -66.621988 134.673015 233.494012
v -63.573988 134.673015 233.494012
vt 0.375000 0.000000
vt 0.625000 0.000000
vt 0.375000 0.250000
vt 0.625000 0.250000
vt 0.375000 0.500000
vt 0.625000 0.500000
vt 0.375000 0.750000
vt 0.625000 0.750000
vt 0.375000 1.000000
vt 0.625000 1.000000
vt 0.875000 0.000000
vt 0.875000 0.250000
vt 0.125000 0.000000
vt 0.125000 0.250000
vn 0.000000 0.000000 1.000000
vn 0.000000 0.000000 1.000000
vn 0.000000 0.000000 1.000000
vn 0.000000 0.000000 1.000000
vn 0.000000 1.000000 0.000000
vn 0.000000 1.000000 0.000000
vn 0.000000 1.000000 0.000000
vn 0.000000 1.000000 0.000000
vn 0.000000 0.000000 -1.000000
vn 0.000000 0.000000 -1.000000
vn 0.000000 0.000000 -1.000000
vn 0.000000 0.000000 -1.000000
vn 0.000000 -1.000000 0.000000
vn 0.000000 -1.000000 0.000000
vn 0.000000 -1.000000 0.000000
vn 0.000000 -1.000000 0.000000
vn 1.000000 0.000000 0.000000
vn 1.000000 0.000000 0.000000
vn 1.000000 0.000000 0.000000
vn 1.000000 0.000000 0.000000
vn -1.000000 0.000000 0.000000
vn -1.000000 0.000000 0.000000
vn -1.000000 0.000000 0.000000
vn -1.000000 0.000000 0.000000
s off
g pCube28
usemtl initialShadingGroup
f 67/87/109 68/88/110 70/90/111 69/89/112
f 69/89/113 70/90/114 72/92/115 71/91/116
f 71/91/117 72/92/118 74/94/119 73/93/120
f 73/93/121 74/94/122 68/96/123 67/95/124
f 68/88/125 74/97/126 72/98/127 70/90/128
f 73/99/129 67/87/130 69/89/131 71/100/132
g default
v -114.538963 134.673017 235.627612
v -112.405363 134.673017 235.627612
v -114.538963 226.113019 235.627612
v -112.405363 226.113019 235.627612
v -114.538963 226.113019 233.494012
v -112.405363 226.113019 233.494012
v -114.538963 134.673017 233.494012
v -112.405363 134.673017 233.494012
vt 0.375000 0.000000
vt 0.625000 0.000000
vt 0.375000 0.250000
vt 0.625000 0.250000
vt 0.375000 0.500000
vt 0.625000 0.500000
vt 0.375000 0.750000
vt 0.625000 0.750000
vt 0.375000 1.000000
vt 0.625000 1.000000
vt 0.875000 0.000000
vt 0.875000 0.250000
vt 0.125000 0.000000
vt 0.125000 0.250000
vn 0.000000 0.000000 1.000000
vn 0.000000 0.000000 1.000000
vn 0.000000 0.000000 1.000000
vn 0.000000 0.000000 1.000000
vn 0.000000 1.000000 0.000000
vn 0.000000 1.000000 0.000000
vn 0.000000 1.000000 0.000000
vn 0.000000 1.000000 0.000000
vn 0.000000 0.000000 -1.000000
vn 0.000000 0.000000 -1.000000
vn 0.000000 0.000000 -1.000000
vn 0.000000 0.000000 -1.000000
vn 0.000000 -1.000000 0.000000
vn 0.000000 -1.000000 0.000000
vn 0.000000 -1.000000 0.000000
vn 0.000000 -1.000000 0.000000
vn 1.000000 0.000000 0.000000
vn 1.000000 0.000000 0.000000
vn 1.000000 0.000000 0.000000
vn 1.000000 0.000000 0.000000
vn -1.000000 0.000000 0.000000
vn -1.000000 0.000000 0.000000
vn -1.000000 0.000000 0.000000
vn -1.000000 0.000000 0.000000
s off
g pCube34
usemtl initialShadingGroup
f 75/101/133 76/102/134 78/104/135 77/103/136
f 77/103/137 78/104/138 80/106/139 79/105/140
f 79/105/141 80/106/142 82/108/143 81/107/144
f 81/107/145 82/108/146 76/110/147 75/109/148
f 76/102/149 82/111/150 80/112/151 78/104/152
f 81/113/153 75/101/154 77/103/155 79/114/156
g default
v -163.237074 184.601626 235.533025
v -63.702238 184.601626 235.533025
v -163.237074 186.735226 235.533025
v -63.702238 186.735226 235.533025
v -163.237074 186.735226 233.399425
v -63.702238 186.735226 233.399425
v -163.237074 184.601626 233.399425
v -63.702238 184.601626 233.399425
vt 0.375000 0.000000
vt 0.625000 0.000000
vt 0.375000 0.250000
vt 0.625000 0.250000
vt 0.375000 0.500000
vt 0.625000 0.500000
vt 0.375000 0.750000
vt 0.625000 0.750000
vt 0.375000 1.000000
vt 0.625000 1.000000
vt 0.875000 0.000000
vt 0.875000 0.250000
vt 0.125000 0.000000
vt 0.125000 0.250000
vn 0.000000 0.000000 1.000000
vn 0.000000 0.000000 1.000000
vn 0.000000 0.000000 1.000000
vn 0.000000 0.000000 1.000000
vn 0.000000 1.000000 0.000000
vn 0.000000 1.000000 0.000000
vn 0.000000 1.000000 0.000000
vn 0.000000 1.000000 0.000000
vn 0.000000 0.000000 -1.000000
vn 0.000000 0.000000 -1.000000
vn 0.000000 0.000000 -1.000000
vn 0.000000 0.000000 -1.000000
vn 0.000000 -1.000000 0.000000
vn 0.000000 -1.000000 0.000000
vn 0.000000 -1.000000 0.000000
vn 0.000000 -1.000000 0.000000
vn 1.000000 0.000000 0.000000
vn 1.000000 0.000000 0.000000
vn 1.000000 0.000000 0.000000
vn 1.000000 0.000000 0.000000
vn -1.000000 0.000000 0.000000
vn -1.000000 0.000000 0.000000
vn -1.000000 0.000000 0.000000
vn -1.000000 0.000000 0.000000
s off
g pCube35
usemtl initialShadingGroup
f 83/115/157 84/116/158 86/118/159 85/117/160
f 85/117/161 86/118/162 88/120/163 87/119/164
f 87/119/165 88/120/166 90/122/167 89/121/168
f 89/121/169 90/122/170 84/124/171 83/123/172
f 84/116/173 90/125/174 88/126/175 86/118/176
f 89/127/177 83/115/178 85/117/179 87/128/180
