# Blender v2.65 (sub 0) OBJ File: 'framebuffer.blend'
# www.blender.org
o Cube.001
v 1.000000 -1.000000 -1.000000
v 1.000000 -1.000000 1.000000
v -1.000000 -1.000000 1.000000
v -1.000000 -1.000000 -1.000000
v 1.000000 1.000000 -0.999999
v -1.000000 1.000000 -1.000000
v -1.000000 1.000000 1.000000
v 0.999999 1.000000 1.000001
vt 0.008357 0.025587
vt 0.991367 0.022570
vt 0.994381 1.005580
vt 0.011374 1.008597
vt 0.996262 0.004081
vt 0.993247 0.987087
vt 0.010238 0.984073
vt 0.013252 0.001063
vt 0.981415 -0.000910
vt 0.984429 0.982100
vt 0.001420 0.985117
vt -0.001595 0.002108
vt 0.003670 0.997042
vt 0.000653 0.014032
vt 0.983662 0.011015
vt 0.986680 0.994025
vt 0.994289 0.984073
vt 0.011282 0.987087
vt 0.008265 0.004081
vt 0.991274 0.001063
vt 0.006291 0.015910
vt 0.989301 0.012896
vt 0.992319 0.995906
vt 0.009309 0.998920
vn 0.000000 -1.000000 -0.000000
vn -0.000000 1.000000 0.000000
vn 1.000000 0.000000 0.000000
vn -0.000000 -0.000000 1.000000
vn -1.000000 0.000000 0.000000
vn 0.000000 0.000000 -1.000000
s off
f 1/1/1 2/2/1 3/3/1 4/4/1
f 5/5/2 6/6/2 7/7/2 8/8/2
f 1/9/3 5/10/3 8/11/3 2/12/3
f 2/13/4 8/14/4 7/15/4 3/16/4
f 3/17/5 7/18/5 6/19/5 4/20/5
f 5/21/6 1/22/6 4/23/6 6/24/6
