# This file uses centimeters as units for non-parametric coordinates.

mtllib Book1.mtl
g default
v -0.467075 6.249364 1.949995
v 0.148619 6.249364 1.949995
v -0.467075 9.031754 1.949995
v 0.148619 9.031754 1.949995
v -0.467075 9.031754 -0.530252
v 0.148619 9.031754 -0.530252
v -0.467075 6.249364 -0.530252
v 0.148619 6.249364 -0.530252
vt 0.989940 0.010952
vt 0.017293 0.023006
vt 0.240145 0.023006
vt 0.767088 0.010952
vt 0.928003 0.993870
vt 0.983323 0.993870
vt 0.983323 0.743870
vt 0.928003 0.743870
vt 0.476203 0.748692
vt 0.538263 0.748692
vt 0.240145 0.273006
vt 0.017293 0.273006
vt 0.767088 0.260952
vt 0.989940 0.260952
vt 0.009444 0.753514
vt 0.064765 0.753514
vt 0.064765 1.003514
vt 0.009444 1.003514
vt 0.538263 0.998692
vt 0.476203 0.998692
vt 0.476203 0.998692
vt 0.538263 0.998692
vt 0.538263 0.748692
vt 0.476203 0.748692
vn 0.000000 0.000000 1.000000
vn 0.000000 0.000000 1.000000
vn 0.000000 0.000000 1.000000
vn 0.000000 0.000000 1.000000
vn 0.000000 1.000000 0.000000
vn 0.000000 1.000000 0.000000
vn 0.000000 1.000000 0.000000
vn 0.000000 1.000000 0.000000
vn 0.000000 0.000000 -1.000000
vn 0.000000 0.000000 -1.000000
vn 0.000000 0.000000 -1.000000
vn 0.000000 0.000000 -1.000000
vn 0.000000 -1.000000 0.000000
vn 0.000000 -1.000000 0.000000
vn 0.000000 -1.000000 0.000000
vn 0.000000 -1.000000 0.000000
vn 1.000000 0.000000 0.000000
vn 1.000000 0.000000 0.000000
vn 1.000000 0.000000 0.000000
vn 1.000000 0.000000 0.000000
vn -1.000000 0.000000 0.000000
vn -1.000000 0.000000 0.000000
vn -1.000000 0.000000 0.000000
vn -1.000000 0.000000 0.000000
s off
g pCube3
usemtl initialShadingGroup1
f 1/15/1 2/16/2 4/17/3 3/18/4
f 3/9/5 4/10/6 6/19/7 5/20/8
f 5/5/9 6/6/10 8/7/11 7/8/12
f 7/21/13 8/22/14 2/23/15 1/24/16
f 2/2/17 8/3/18 6/11/19 4/12/20
f 7/1/21 1/4/22 3/13/23 5/14/24
