# This file uses centimeters as units for non-parametric coordinates.

mtllib Book2.mtl
g default
v -0.278397 3.346784 1.438869
v -0.040059 3.346784 1.438869
v -0.278397 5.508503 1.438869
v -0.040059 5.508503 1.438869
v -0.278397 5.508503 -0.019126
v -0.040059 5.508503 -0.019126
v -0.278397 3.346784 -0.019126
v -0.040059 3.346784 -0.019126
vt 0.967643 0.013363
vt 0.017891 0.015774
vt 0.186507 0.015774
vt 0.799028 0.013363
vt 0.961169 1.010746
vt 0.988732 1.010746
vt 0.988732 0.760746
vt 0.961169 0.760746
vt 0.474744 0.741459
vt 0.515612 0.741459
vt 0.186507 0.265774
vt 0.017891 0.265774
vt 0.799028 0.263363
vt 0.967643 0.263363
vt 0.011268 0.741459
vt 0.038831 0.741459
vt 0.038831 0.991459
vt 0.011268 0.991459
vt 0.515612 0.991459
vt 0.474744 0.991459
vt 0.474744 0.991459
vt 0.515612 0.991459
vt 0.515612 0.741459
vt 0.474744 0.741459
vn 0.000000 0.000000 1.000000
vn 0.000000 0.000000 1.000000
vn 0.000000 0.000000 1.000000
vn 0.000000 0.000000 1.000000
vn 0.000000 1.000000 0.000000
vn 0.000000 1.000000 0.000000
vn 0.000000 1.000000 0.000000
vn 0.000000 1.000000 0.000000
vn 0.000000 0.000000 -1.000000
vn 0.000000 0.000000 -1.000000
vn 0.000000 0.000000 -1.000000
vn 0.000000 0.000000 -1.000000
vn 0.000000 -1.000000 0.000000
vn 0.000000 -1.000000 0.000000
vn 0.000000 -1.000000 0.000000
vn 0.000000 -1.000000 0.000000
vn 1.000000 0.000000 0.000000
vn 1.000000 0.000000 0.000000
vn 1.000000 0.000000 0.000000
vn 1.000000 0.000000 0.000000
vn -1.000000 0.000000 0.000000
vn -1.000000 0.000000 0.000000
vn -1.000000 0.000000 0.000000
vn -1.000000 0.000000 0.000000
s off
g pCube4
usemtl initialShadingGroup1
f 1/15/1 2/16/2 4/17/3 3/18/4
f 3/9/5 4/10/6 6/19/7 5/20/8
f 5/5/9 6/6/10 8/7/11 7/8/12
f 7/21/13 8/22/14 2/23/15 1/24/16
f 2/2/17 8/3/18 6/11/19 4/12/20
f 7/1/21 1/4/22 3/13/23 5/14/24
