# Blender v2.65 (sub 0) OBJ File: 'Knob.blend'
# www.blender.org
o nob2_pCylinder3
v 1.515703 2.348112 0.687079
v 1.515703 2.118003 0.519895
v 1.395467 2.118003 0.519895
v 1.395467 2.348112 0.687079
v 1.515703 1.833572 0.519895
v 1.395467 1.833572 0.519895
v 1.515703 1.603463 0.687080
v 1.395467 1.603463 0.687080
v 1.515703 1.515569 0.957589
v 1.395467 1.515569 0.957589
v 1.515703 1.603463 1.228099
v 1.395467 1.603463 1.228099
v 1.515703 1.833572 1.395283
v 1.395467 1.833572 1.395283
v 1.515703 2.118003 1.395283
v 1.395467 2.118003 1.395283
v 1.515703 2.348112 1.228098
v 1.395467 2.348112 1.228098
v 1.515703 2.436006 0.957589
v 1.395467 2.436006 0.957589
v 1.785803 1.975788 0.957589
v 1.665566 1.975788 0.957589
v 1.513266 1.946975 0.862300
v 1.513266 1.914958 0.763761
v 1.513266 1.811347 0.839038
v 1.513266 1.895170 0.899938
v 1.513266 1.864224 0.877456
v 1.513266 1.935155 0.825922
v 1.513266 2.011010 0.862300
v 1.513266 2.043027 0.763761
v 1.513266 2.022830 0.825922
v 1.513266 2.062815 0.899938
v 1.513266 2.146637 0.839038
v 1.513266 2.093760 0.877456
v 1.513266 2.082602 0.960839
v 1.513266 2.186213 0.960839
v 1.513266 2.120853 0.960839
v 1.513266 2.062815 1.021740
v 1.513266 2.146637 1.082640
v 1.513266 2.093760 1.044223
v 1.513266 2.011009 1.059378
v 1.513266 2.043027 1.157918
v 1.513266 2.022829 1.095757
v 1.513266 1.946975 1.059378
v 1.513266 1.914958 1.157918
v 1.513266 1.935155 1.095757
v 1.513266 1.895170 1.021740
v 1.513266 1.811347 1.082640
v 1.513266 1.864224 1.044223
v 1.513266 1.875382 0.960839
v 1.513266 1.771772 0.960839
v 1.513266 1.837131 0.960839
v 1.513266 1.811347 0.839038
v 1.513266 1.914958 0.763761
v 1.513266 1.882940 0.665221
v 1.513266 1.727525 0.778137
v 1.513266 2.043027 0.763761
v 1.513266 2.075044 0.665222
v 1.513266 2.146637 0.839038
v 1.513266 2.230460 0.778137
v 1.513266 2.186213 0.960839
v 1.513266 2.289823 0.960839
v 1.513266 2.146637 1.082640
v 1.513266 2.230460 1.143541
v 1.513266 2.043027 1.157918
v 1.513266 2.075044 1.256457
v 1.513266 1.914958 1.157918
v 1.513266 1.882940 1.256457
v 1.513266 1.811347 1.082640
v 1.513266 1.727525 1.143541
v 1.513266 1.771772 0.960839
v 1.513266 1.668161 0.960839
v 1.855433 1.882940 0.665221
v 1.855433 1.727525 0.778137
v 1.855433 2.075044 0.665222
v 1.855433 2.230460 0.778137
v 1.855433 2.289823 0.960839
v 1.855433 2.230460 1.143541
v 1.855433 2.075044 1.256457
v 1.855433 1.882940 1.256457
v 1.855433 1.727525 1.143541
v 1.855433 1.668161 0.960839
v 1.855433 1.907578 0.741050
v 1.855433 1.792028 0.825002
v 1.855433 2.050406 0.741050
v 1.855433 2.165956 0.825002
v 1.855433 2.210092 0.960839
v 1.855433 2.165956 1.096676
v 1.855433 2.050406 1.180629
v 1.855433 1.907578 1.180629
v 1.855433 1.792028 1.096676
v 1.855433 1.747892 0.960839
v 1.720060 1.792028 0.825002
v 1.720060 1.907578 0.741050
v 1.720060 1.926574 0.799511
v 1.720060 1.841758 0.861133
v 1.720060 2.050406 0.741050
v 1.720060 2.031411 0.799511
v 1.720060 2.165956 0.825002
v 1.720060 2.116226 0.861133
v 1.720060 2.210092 0.960839
v 1.720060 2.148623 0.960840
v 1.720060 2.165956 1.096676
v 1.720060 2.116226 1.060546
v 1.720060 2.050406 1.180629
v 1.720060 2.031410 1.122168
v 1.720060 1.907579 1.180629
v 1.720060 1.926574 1.122168
v 1.720060 1.792028 1.096676
v 1.720060 1.841758 1.060546
v 1.720060 1.747891 0.960839
v 1.720060 1.809361 0.960840
v 1.513266 1.935155 0.825922
v 1.513266 1.864224 0.877456
v 1.513266 1.978992 0.960839
v 1.513266 2.022830 0.825922
v 1.513266 2.093760 0.877456
v 1.513266 2.120853 0.960839
v 1.513266 2.093760 1.044223
v 1.513266 2.022829 1.095757
v 1.513266 1.935155 1.095757
v 1.513266 1.864224 1.044223
v 1.513266 1.837131 0.960839
v 1.855433 1.841758 0.861133
v 1.855433 1.926573 0.799511
v 1.855433 1.978992 0.960839
v 1.855433 2.031411 0.799511
v 1.855433 2.116226 0.861133
v 1.855433 2.148623 0.960840
v 1.855433 2.116226 1.060546
v 1.855433 2.031411 1.122168
v 1.855433 1.926573 1.122168
v 1.855433 1.841758 1.060546
v 1.855433 1.809361 0.960840
v 1.513266 1.811347 0.839038
v 1.513266 1.914958 0.763761
v 1.513266 2.043027 0.763761
v 1.513266 2.146637 0.839038
v 1.513266 2.186213 0.960839
v 1.513266 2.146637 1.082640
v 1.513266 2.043027 1.157918
v 1.513266 1.914958 1.157918
v 1.513266 1.811347 1.082640
v 1.513266 1.771772 0.960839
v 1.513266 1.811347 0.839038
v 1.513266 1.914958 0.763761
v 1.513266 1.935155 0.825922
v 1.513266 1.864224 0.877456
v 1.513266 2.043027 0.763761
v 1.513266 2.022830 0.825922
v 1.513266 2.146637 0.839038
v 1.513266 2.093760 0.877456
v 1.513266 2.186213 0.960839
v 1.513266 2.120853 0.960839
v 1.513266 2.146637 1.082640
v 1.513266 2.093760 1.044223
v 1.513266 2.043027 1.157918
v 1.513266 2.022829 1.095757
v 1.513266 1.914958 1.157918
v 1.513266 1.935155 1.095757
v 1.513266 1.811347 1.082640
v 1.513266 1.864224 1.044223
v 1.513266 1.771772 0.960839
v 1.513266 1.837131 0.960839
vt 0.919704 0.691731
vt 0.920126 0.554576
vt 0.978105 0.554754
vt 0.977684 0.691909
vt 0.920466 0.443615
vt 0.978445 0.443793
vt 0.422968 0.991682
vt 0.422628 0.880720
vt 0.480606 0.880543
vt 0.480947 0.991504
vt 0.422207 0.743566
vt 0.480185 0.743388
vt 0.955801 0.152552
vt 0.955586 0.222605
vt 0.918982 0.222493
vt 0.919196 0.152439
vt 0.955320 0.309196
vt 0.918716 0.309084
vt 0.869267 0.379138
vt 0.869482 0.309084
vt 0.906086 0.309196
vt 0.905871 0.379250
vt 0.869747 0.222493
vt 0.906352 0.222605
vt 0.869963 0.152439
vt 0.906567 0.152552
vt 0.919365 0.802692
vt 0.977344 0.802870
vt 0.514416 0.047960
vt 0.644878 0.005722
vt 0.646109 0.223333
vt 0.433734 0.158787
vt 0.433651 0.295871
vt 0.514196 0.406852
vt 0.644606 0.449337
vt 0.775067 0.407100
vt 0.855749 0.296273
vt 0.855833 0.159188
vt 0.775288 0.048208
vt 0.000000 0.288463
vt 0.000084 0.151308
vt 0.211103 0.220015
vt 0.080771 0.040396
vt 0.211240 -0.001907
vt 0.341656 0.040556
vt 0.422207 0.151567
vt 0.422122 0.288722
vt 0.341436 0.399634
vt 0.210967 0.441938
vt 0.080551 0.399474
vt 0.818605 0.605169
vt 0.818834 0.530226
vt 0.983831 0.530733
vt 0.983601 0.605675
vt 0.516629 0.731973
vt 0.516400 0.806916
vt 0.351403 0.806410
vt 0.351633 0.731467
vt 0.516116 0.899550
vt 0.351120 0.899044
vt 0.515885 0.974493
vt 0.350889 0.973987
vt 0.605588 0.971393
vt 0.605358 0.896451
vt 0.770354 0.895944
vt 0.770584 0.970887
vt 0.605073 0.803816
vt 0.770070 0.803310
vt 0.604844 0.728873
vt 0.769841 0.728367
vt 0.817806 0.530226
vt 0.818090 0.622860
vt 0.653094 0.623367
vt 0.652810 0.530732
vt 0.818320 0.697804
vt 0.653324 0.698310
vt 0.983316 0.698310
vt 0.000000 0.000000
vt 0.015072 0.920241
vt 0.015284 0.851369
vt 0.080561 0.851569
vt 0.080350 0.920441
vt 0.161513 0.883136
vt 0.161388 0.924034
vt 0.096109 0.923834
vt 0.096235 0.882935
vt 0.015455 0.795649
vt 0.080732 0.795849
vt 0.921471 0.922472
vt 0.921597 0.963371
vt 0.856318 0.963571
vt 0.856193 0.922672
vt 0.269056 0.972208
vt 0.268845 0.903335
vt 0.334123 0.903135
vt 0.334334 0.972007
vt 0.921316 0.871919
vt 0.856037 0.872119
vt 0.268674 0.847616
vt 0.333952 0.847415
vt 0.921190 0.831019
vt 0.855912 0.831220
vt 0.528877 0.974592
vt 0.528665 0.905720
vt 0.593943 0.905520
vt 0.594155 0.974392
vt 0.921877 0.871919
vt 0.922003 0.831020
vt 0.987281 0.831220
vt 0.987156 0.872119
vt 0.528495 0.850000
vt 0.593772 0.849800
vt 0.921722 0.922472
vt 0.987000 0.922673
vt 0.781082 0.978413
vt 0.781253 0.922694
vt 0.846530 0.922894
vt 0.846360 0.978613
vt 0.986875 0.963571
vt 0.781464 0.853821
vt 0.846741 0.854021
vt 0.244648 0.924034
vt 0.244493 0.974588
vt 0.179215 0.974388
vt 0.179371 0.923834
vt 0.781635 0.798101
vt 0.846913 0.798301
vt 0.244774 0.883135
vt 0.179495 0.882935
vt 0.014901 0.975960
vt 0.080179 0.976161
vt 0.161232 0.974588
vt 0.095954 0.974388
vt 0.445595 0.574731
vt 0.427551 0.580581
vt 0.418539 0.568161
vt 0.445604 0.559385
vt 0.416393 0.595920
vt 0.401801 0.591169
vt 0.416381 0.614889
vt 0.401783 0.619622
vt 0.427521 0.630241
vt 0.418493 0.642651
vt 0.445557 0.636114
vt 0.445548 0.651460
vt 0.463601 0.630263
vt 0.472613 0.642684
vt 0.474760 0.614925
vt 0.489351 0.619675
vt 0.474771 0.595956
vt 0.489369 0.591223
vt 0.463631 0.580604
vt 0.472659 0.568194
vt 0.039313 0.718489
vt 0.039370 0.625902
vt 0.075926 0.637812
vt 0.075884 0.706650
vt 0.093863 0.551051
vt 0.116441 0.582160
vt 0.181976 0.522523
vt 0.181952 0.560950
vt 0.270055 0.551218
vt 0.247438 0.582285
vt 0.324455 0.626174
vt 0.287884 0.638014
vt 0.324398 0.718761
vt 0.287842 0.706851
vt 0.269906 0.793613
vt 0.247328 0.762504
vt 0.181792 0.822140
vt 0.181815 0.783713
vt 0.093714 0.793445
vt 0.116330 0.762379
vt 0.342584 0.636998
vt 0.342626 0.568161
vt 0.370810 0.577342
vt 0.370779 0.627870
vt 0.383141 0.512509
vt 0.400548 0.536493
vt 0.448653 0.491299
vt 0.448634 0.520925
vt 0.514138 0.512633
vt 0.496702 0.536584
vt 0.554584 0.568362
vt 0.526390 0.577491
vt 0.554542 0.637200
vt 0.526359 0.628018
vt 0.514028 0.692852
vt 0.496621 0.668867
vt 0.448515 0.714061
vt 0.448534 0.684436
vt 0.383030 0.692727
vt 0.400467 0.668776
vt 0.974506 0.047228
vt 0.974532 0.089506
vt 0.909461 0.068407
vt 0.949635 0.013040
vt 0.909419 0.000000
vt 0.869218 0.013089
vt 0.844389 0.047308
vt 0.844415 0.089586
vt 0.869286 0.123774
vt 0.909503 0.136814
vt 0.949703 0.123725
vt 0.103702 0.698583
vt 0.103733 0.648055
vt 0.181507 0.673393
vt 0.133471 0.607206
vt 0.181558 0.591638
vt 0.229625 0.607297
vt 0.259313 0.648203
vt 0.259282 0.698731
vt 0.229544 0.739581
vt 0.181457 0.755149
vt 0.133390 0.739489
vt 0.784196 0.833010
vt 0.765076 0.891732
vt 0.739590 0.873191
vt 0.752679 0.832991
vt 0.395013 0.907435
vt 0.363513 0.907416
vt 0.382643 0.848697
vt 0.408110 0.867236
vt 0.408033 0.947649
vt 0.382531 0.966158
vt 0.123181 0.902070
vt 0.173143 0.902009
vt 0.154132 0.960766
vt 0.128611 0.942272
vt 0.141626 0.902047
vt 0.288692 0.948297
vt 0.241184 0.963765
vt 0.241147 0.902009
vt 0.271153 0.954007
vt 0.271127 0.911730
vt 0.408080 0.828478
vt 0.362392 0.848697
vt 0.356074 0.787264
vt 0.391213 0.835943
vt 0.386888 0.793886
vt 0.408110 0.757321
vt 0.387073 0.733851
vt 0.765222 0.774264
vt 0.739703 0.755796
vt 0.752708 0.715577
vt 0.784219 0.715516
vt 0.739590 0.675409
vt 0.765057 0.656841
vt 0.739639 0.792774
vt 0.765148 0.774264
vn 0.000000 0.587785 -0.809017
vn 0.000000 0.000000 -1.000000
vn 0.000000 -0.587788 -0.809015
vn 0.000000 -0.951056 -0.309018
vn 0.000000 -0.951057 0.309017
vn 0.000000 -0.587786 0.809017
vn -0.000000 0.000000 1.000000
vn 0.000000 0.587787 0.809016
vn 0.000000 0.951056 0.309018
vn 0.000000 0.951057 -0.309017
vn 0.458876 0.274545 -0.844997
vn 0.458876 0.718802 -0.522233
vn 1.000000 0.000000 0.000000
vn 0.458876 -0.274545 -0.844997
vn 0.458876 -0.718802 -0.522233
vn 0.458876 -0.888485 0.000000
vn 0.458876 -0.718802 0.522233
vn 0.458876 -0.274545 0.844997
vn 0.458876 0.274545 0.844997
vn 0.458876 0.718802 0.522233
vn 0.458876 0.888485 0.000000
vn -0.795221 0.490493 -0.356365
vn -0.795221 0.187353 -0.576617
vn -1.000000 0.000000 0.000000
vn -0.795221 -0.187353 -0.576617
vn -0.795221 -0.490493 -0.356365
vn -0.795221 -0.606281 0.000000
vn -0.795221 -0.490493 0.356365
vn -0.795221 -0.187353 0.576617
vn -0.795221 0.187353 0.576617
vn -0.795221 0.490493 0.356365
vn -0.795221 0.606281 0.000000
vn 0.000000 -0.587786 -0.809016
vn 0.000000 0.000006 -1.000000
vn 0.000000 0.587780 -0.809021
vn 0.000000 0.951057 -0.309015
vn 0.000000 0.951057 0.309015
vn 0.000000 0.587784 0.809018
vn 0.000000 -0.587786 0.809016
vn 0.000000 -0.951056 0.309019
vn 0.000000 -0.951056 -0.309019
vn 0.000000 0.000000 0.000000
vn 0.000000 0.587785 0.809017
vn -0.000002 -0.587785 -0.809017
vn 0.000000 -0.587785 0.809017
vn 0.000000 0.587787 -0.809016
vn 0.000000 -0.951057 0.309016
vn 0.000000 0.951056 -0.309019
vn 0.000000 -0.951057 -0.309017
vn 0.000000 0.951055 0.309022
vn 0.000000 -0.587790 -0.809014
vn -0.000002 0.587784 0.809018
vn 0.000002 0.587788 -0.809015
vn -0.000002 -0.587784 0.809018
vn -0.000004 0.951056 -0.309019
vn 0.000000 -0.951055 0.309022
vn -0.000004 0.951056 0.309019
vn -0.999969 0.000000 0.000000
vn -0.643696 -0.236457 -0.727805
vn -0.643696 -0.619098 -0.449782
vn -0.643696 0.236457 -0.727805
vn -0.643696 0.619098 -0.449812
vn -0.643696 0.765252 0.000000
vn -0.643696 0.619098 0.449782
vn -0.643696 0.236457 0.727805
vn -0.643696 -0.236457 0.727805
vn -0.643696 -0.619098 0.449782
vn -0.643696 -0.765252 0.000000
vn 0.643696 -0.619098 -0.449782
vn 0.643696 -0.236457 -0.727805
vn 0.783685 0.191931 0.590716
vn 0.783685 0.502487 0.365062
vn 0.643696 0.236457 -0.727805
vn 0.783685 -0.191931 0.590716
vn 0.643696 0.619098 -0.449812
vn 0.783685 -0.502487 0.365062
vn 0.643696 0.765252 0.000000
vn 0.783685 -0.621113 0.000000
vn 0.643696 0.619098 0.449782
vn 0.783685 -0.502487 -0.365062
vn 0.643696 0.236457 0.727805
vn 0.783685 -0.191931 -0.590716
vn 0.643696 -0.236457 0.727805
vn 0.783685 0.191931 -0.590716
vn 0.643696 -0.619098 0.449782
vn 0.783685 0.502487 -0.365062
vn 0.643696 -0.765252 0.000000
vn 0.783685 0.621113 0.000000
vn 0.643696 0.619098 -0.449782
vn 0.999969 0.000000 0.000000
vn 0.643696 0.619098 0.449812
vn 0.643696 -0.619098 0.449812
vn 0.583300 0.722892 0.370342
vn 0.574999 0.720115 0.388226
vn 0.550707 0.757897 0.349651
vn 0.568804 0.755882 0.324107
vn 0.579272 0.745293 0.330088
s off
f 1/1/1 2/2/1 3/3/1 4/4/1
f 2/2/2 5/5/2 6/6/2 3/3/2
f 5/7/3 7/8/3 8/9/3 6/10/3
f 7/8/4 9/11/4 10/12/4 8/9/4
f 9/13/5 11/14/5 12/15/5 10/16/5
f 11/14/6 13/17/6 14/18/6 12/15/6
f 13/19/7 15/20/7 16/21/7 14/22/7
f 15/20/8 17/23/8 18/24/8 16/21/8
f 17/23/9 19/25/9 20/26/9 18/24/9
f 19/27/10 1/1/10 4/4/10 20/28/10
s 1
f 2/29/11 1/30/12 21/31/13
f 5/32/14 2/29/11 21/31/13
f 7/33/15 5/32/14 21/31/13
f 9/34/16 7/33/15 21/31/13
f 11/35/17 9/34/16 21/31/13
f 13/36/18 11/35/17 21/31/13
f 15/37/19 13/36/18 21/31/13
f 17/38/20 15/37/19 21/31/13
f 19/39/21 17/38/20 21/31/13
f 1/30/12 19/39/21 21/31/13
f 4/40/22 3/41/23 22/42/24
f 3/41/23 6/43/25 22/42/24
f 6/43/25 8/44/26 22/42/24
f 8/44/26 10/45/27 22/42/24
f 10/45/27 12/46/28 22/42/24
f 12/46/28 14/47/29 22/42/24
f 14/47/29 16/48/30 22/42/24
f 16/48/30 18/49/31 22/42/24
f 18/49/31 20/50/32 22/42/24
f 20/50/32 4/40/22 22/42/24
s off
f 56/51/33 55/52/33 73/53/33 74/54/33
f 55/55/34 58/56/34 75/57/34 73/58/34
f 58/56/35 60/59/35 76/60/35 75/57/35
f 60/59/36 62/61/36 77/62/36 76/60/36
f 62/63/37 64/64/37 78/65/37 77/66/37
f 64/64/38 66/67/38 79/68/38 78/65/38
f 66/67/7 68/69/7 80/70/7 79/68/7
f 68/71/39 70/72/39 81/73/39 80/74/39
f 70/72/40 72/75/40 82/76/40 81/73/40
f 72/75/41 56/51/41 74/54/41 82/77/41
f 54/78/42 53/78/42 135/78/42 136/78/42
f 57/78/42 54/78/42 136/78/42 137/78/42
f 59/78/42 57/78/42 137/78/42 138/78/42
f 61/78/42 59/78/42 138/78/42 139/78/42
f 63/78/42 61/78/42 139/78/42 140/78/42
f 65/78/42 63/78/42 140/78/42 141/78/42
f 67/78/42 65/78/42 141/78/42 142/78/42
f 69/78/42 67/78/42 142/78/42 143/78/42
f 71/78/42 69/78/42 143/78/42 144/78/42
f 53/78/42 71/78/42 144/78/42 135/78/42
f 136/78/42 135/78/42 145/78/42 146/78/42
f 114/78/42 113/78/42 147/78/42 148/78/42
f 137/78/42 136/78/42 146/78/42 149/78/42
f 113/78/42 116/78/42 150/78/42 147/78/42
f 138/78/42 137/78/42 149/78/42 151/78/42
f 116/78/42 117/78/42 152/78/42 150/78/42
f 139/78/42 138/78/42 151/78/42 153/78/42
f 117/78/42 118/78/42 154/78/42 152/78/42
f 140/78/42 139/78/42 153/78/42 155/78/42
f 118/78/42 119/78/42 156/78/42 154/78/42
f 141/78/42 140/78/42 155/78/42 157/78/42
f 119/78/42 120/78/42 158/78/42 156/78/42
f 142/78/42 141/78/42 157/78/42 159/78/42
f 120/78/42 121/78/42 160/78/42 158/78/42
f 143/78/42 142/78/42 159/78/42 161/78/42
f 121/78/42 122/78/42 162/78/42 160/78/42
f 144/78/42 143/78/42 161/78/42 163/78/42
f 122/78/42 123/78/42 164/78/42 162/78/42
f 135/78/42 144/78/42 163/78/42 145/78/42
f 123/78/42 114/78/42 148/78/42 164/78/42
f 146/78/42 145/78/42 25/78/42 24/78/42
f 148/78/42 147/78/42 28/78/42 27/78/42
f 149/78/42 146/78/42 24/78/42 30/78/42
f 147/78/42 150/78/42 31/78/42 28/78/42
f 151/78/42 149/78/42 30/78/42 33/78/42
f 150/78/42 152/78/42 34/78/42 31/78/42
f 153/78/42 151/78/42 33/78/42 36/78/42
f 152/78/42 154/78/42 37/78/42 34/78/42
f 155/78/42 153/78/42 36/78/42 39/78/42
f 154/78/42 156/78/42 40/78/42 37/78/42
f 157/78/42 155/78/42 39/78/42 42/78/42
f 156/78/42 158/78/42 43/78/42 40/78/42
f 159/78/42 157/78/42 42/78/42 45/78/42
f 158/78/42 160/78/42 46/78/42 43/78/42
f 161/78/42 159/78/42 45/78/42 48/78/42
f 160/78/42 162/78/42 49/78/42 46/78/42
f 163/78/42 161/78/42 48/78/42 51/78/42
f 162/78/42 164/78/42 52/78/42 49/78/42
f 145/78/42 163/78/42 51/78/42 25/78/42
f 164/78/42 148/78/42 27/78/42 52/78/42
f 84/79/43 83/80/43 94/81/43 93/82/43
f 125/83/44 124/84/44 96/85/44 95/86/44
f 83/80/7 85/87/7 97/88/7 94/81/7
f 127/89/2 125/90/2 95/91/2 98/92/2
f 85/93/45 86/94/45 99/95/45 97/96/45
f 128/97/46 127/89/46 98/92/46 100/98/46
f 86/94/47 87/99/47 101/100/47 99/95/47
f 129/101/48 128/97/48 100/98/48 102/102/48
f 87/103/49 88/104/49 103/105/49 101/106/49
f 130/107/50 129/108/50 102/109/50 104/110/50
f 88/104/51 89/111/51 105/112/51 103/105/51
f 131/113/52 130/107/52 104/110/52 106/114/52
f 89/115/2 90/116/2 107/117/2 105/118/2
f 132/90/7 131/113/7 106/114/7 108/119/7
f 90/116/53 91/120/53 109/121/53 107/117/53
f 133/122/54 132/123/54 108/124/54 110/125/54
f 91/120/55 92/126/55 111/127/55 109/121/55
f 134/128/56 133/122/56 110/125/56 112/129/56
f 92/130/57 84/79/57 93/82/57 111/131/57
f 124/84/41 134/132/41 112/133/41 96/85/41
s 1
f 53/134/58 54/135/24 55/136/59 56/137/60
f 54/135/24 57/138/24 58/139/61 55/136/59
f 57/138/24 59/140/24 60/141/62 58/139/61
f 59/140/24 61/142/24 62/143/63 60/141/62
f 61/142/24 63/144/24 64/145/64 62/143/63
f 63/144/24 65/146/24 66/147/65 64/145/64
f 65/146/24 67/148/24 68/149/66 66/147/65
f 67/148/24 69/150/58 70/151/67 68/149/66
f 69/150/58 71/152/24 72/153/68 70/151/67
f 71/152/24 53/134/58 56/137/60 72/153/68
f 74/154/69 73/155/70 83/156/71 84/157/72
f 73/155/70 75/158/73 85/159/74 83/156/71
f 75/158/73 76/160/75 86/161/76 85/159/74
f 76/160/75 77/162/77 87/163/78 86/161/76
f 77/162/77 78/164/79 88/165/80 87/163/78
f 78/164/79 79/166/81 89/167/82 88/165/80
f 79/166/81 80/168/83 90/169/84 89/167/82
f 80/168/83 81/170/85 91/171/86 90/169/84
f 81/170/85 82/172/87 92/173/88 91/171/86
f 82/172/87 74/154/69 84/157/72 92/173/88
f 93/174/79 94/175/81 95/176/82 96/177/80
f 94/175/81 97/178/83 98/179/84 95/176/82
f 97/178/83 99/180/85 100/181/86 98/179/84
f 99/180/85 101/182/87 102/183/88 100/181/86
f 101/182/87 103/184/69 104/185/72 102/183/88
f 103/184/69 105/186/70 106/187/71 104/185/72
f 105/186/70 107/188/73 108/189/74 106/187/71
f 107/188/73 109/190/89 110/191/76 108/189/74
f 109/190/89 111/192/77 112/193/78 110/191/76
f 111/192/77 93/174/79 96/177/80 112/193/78
f 113/194/24 114/195/24 115/196/24
f 116/197/24 113/194/24 115/196/24
f 117/198/24 116/197/24 115/196/24
f 118/199/24 117/198/24 115/196/24
f 119/200/24 118/199/24 115/196/24
f 120/201/24 119/200/24 115/196/24
f 121/202/24 120/201/24 115/196/24
f 122/203/24 121/202/24 115/196/24
f 123/204/24 122/203/24 115/196/24
f 114/195/24 123/204/24 115/196/24
f 124/205/69 125/206/70 126/207/90
f 125/206/70 127/208/73 126/207/90
f 127/208/73 128/209/89 126/207/90
f 128/209/89 129/210/77 126/207/90
f 129/210/77 130/211/91 126/207/90
f 130/211/91 131/212/81 126/207/90
f 131/212/81 132/213/83 126/207/90
f 132/213/83 133/214/92 126/207/90
f 133/214/92 134/215/87 126/207/90
f 134/215/87 124/205/69 126/207/90
f 25/216/24 51/217/24 52/218/24
f 52/78/24 51/78/24 50/78/93
f 25/216/24 52/218/24 27/219/24
f 27/78/24 26/78/24 25/78/24
f 49/220/13 48/221/13 51/222/24
f 47/78/94 48/78/13 49/78/13
f 52/223/24 49/220/13 51/222/24
f 46/224/13 45/225/90 48/221/13
f 44/78/24 45/78/90 46/78/13
f 49/220/13 46/224/13 48/221/13
f 44/226/24 45/227/90 42/228/24
f 44/226/24 42/228/24 43/229/58
f 43/78/58 42/78/24 41/78/24
f 44/226/24 46/230/13 43/229/58
f 41/231/24 42/232/24 39/233/24
f 41/231/24 43/234/58 40/235/24
f 41/231/24 39/233/24 40/235/24
f 40/78/24 39/78/24 38/78/58
f 38/236/58 39/237/24 36/238/58
f 38/236/58 40/239/24 37/240/24
f 37/240/24 38/236/58 36/238/58
f 37/78/24 35/78/95 36/78/58
f 34/241/58 37/240/24 36/238/58
f 34/241/58 36/238/58 33/242/90
f 33/78/90 32/78/24 34/78/58
f 33/243/90 34/244/58 31/245/13
f 31/78/13 29/78/96 30/78/13
f 30/246/13 33/243/90 31/245/13
f 24/78/13 23/78/97 28/78/13
f 31/245/13 28/247/13 24/248/13
f 30/246/13 31/245/13 24/248/13
f 25/216/24 27/219/24 28/249/13
f 24/250/13 25/216/24 28/249/13
